<?xml version="1.0" encoding="UTF-8" standalone="no"?>
<!-- Created with Inkscape (http://www.inkscape.org/) -->

<svg
   xmlns:dc="http://purl.org/dc/elements/1.1/"
   xmlns:cc="http://creativecommons.org/ns#"
   xmlns:rdf="http://www.w3.org/1999/02/22-rdf-syntax-ns#"
   xmlns:svg="http://www.w3.org/2000/svg"
   xmlns="http://www.w3.org/2000/svg"
   xmlns:sodipodi="http://sodipodi.sourceforge.net/DTD/sodipodi-0.dtd"
   xmlns:inkscape="http://www.inkscape.org/namespaces/inkscape"
   width="2759.5012mm"
   height="1115.8053mm"
   viewBox="0 0 2759.5013 1115.8053"
   version="1.1"
   id="svg8"
   inkscape:version="0.92.4 5da689c313, 2019-01-14"
   sodipodi:docname="exemple-videotex.svg">
  <defs
     id="defs2" />
  <sodipodi:namedview
     id="base"
     pagecolor="#252525"
     bordercolor="#666666"
     borderopacity="1.0"
     inkscape:pageopacity="1"
     inkscape:pageshadow="2"
     inkscape:zoom="0.087499999"
     inkscape:cx="-396.74412"
     inkscape:cy="-4206.7516"
     inkscape:document-units="mm"
     inkscape:current-layer="layer1"
     showgrid="false"
     showguides="true"
     inkscape:guide-bbox="true"
     fit-margin-top="10"
     fit-margin-left="10"
     fit-margin-right="10"
     fit-margin-bottom="10"
     inkscape:window-width="3840"
     inkscape:window-height="2063"
     inkscape:window-x="0"
     inkscape:window-y="27"
     inkscape:window-maximized="1" />
  <metadata
     id="metadata5">
    <rdf:RDF>
      <cc:Work
         rdf:about="">
        <dc:format>image/svg+xml</dc:format>
        <dc:type
           rdf:resource="http://purl.org/dc/dcmitype/StillImage" />
        <dc:title></dc:title>
      </cc:Work>
    </rdf:RDF>
  </metadata>
  <g
     inkscape:label="Calque 1"
     inkscape:groupmode="layer"
     id="layer1"
     transform="translate(1640.4554,741.4595)">
    <rect
       style="display:inline;opacity:1;vector-effect:none;fill:#9aa0a8;fill-opacity:1;stroke:none;stroke-width:4.41416883;stroke-linecap:butt;stroke-linejoin:miter;stroke-miterlimit:4;stroke-dasharray:none;stroke-dashoffset:0;stroke-opacity:1"
       id="rect820"
       width="96.741371"
       height="96.741371"
       x="-36.715176"
       y="858.65271" />
    <rect
       y="858.65271"
       x="74.236885"
       height="96.741371"
       width="96.741371"
       id="rect822"
       style="display:inline;opacity:1;vector-effect:none;fill:#a7c4b5;fill-opacity:1;stroke:none;stroke-width:4.41416883;stroke-linecap:butt;stroke-linejoin:miter;stroke-miterlimit:4;stroke-dasharray:none;stroke-dashoffset:0;stroke-opacity:1" />
    <rect
       style="display:inline;opacity:1;vector-effect:none;fill:#a9d8b8;fill-opacity:1;stroke:none;stroke-width:4.41416883;stroke-linecap:butt;stroke-linejoin:miter;stroke-miterlimit:4;stroke-dasharray:none;stroke-dashoffset:0;stroke-opacity:1"
       id="rect824"
       width="96.741371"
       height="96.741371"
       x="185.18886"
       y="858.65271" />
    <rect
       y="858.65271"
       x="296.14084"
       height="96.741371"
       width="96.741371"
       id="rect826"
       style="display:inline;opacity:1;vector-effect:none;fill:#beffc7;fill-opacity:1;stroke:none;stroke-width:4.41416883;stroke-linecap:butt;stroke-linejoin:miter;stroke-miterlimit:4;stroke-dasharray:none;stroke-dashoffset:0;stroke-opacity:1" />
    <rect
       style="display:inline;opacity:1;vector-effect:none;fill:#72705b;fill-opacity:1;stroke:none;stroke-width:4.41416883;stroke-linecap:butt;stroke-linejoin:miter;stroke-miterlimit:4;stroke-dasharray:none;stroke-dashoffset:0;stroke-opacity:1"
       id="rect828"
       width="96.741371"
       height="96.741371"
       x="407.09259"
       y="858.65271" />
    <rect
       y="858.65271"
       x="-147.66707"
       height="96.741371"
       width="96.741371"
       id="rect830"
       style="display:inline;opacity:1;vector-effect:none;fill:#ffffff;fill-opacity:1;stroke:none;stroke-width:4.41416883;stroke-linecap:butt;stroke-linejoin:miter;stroke-miterlimit:4;stroke-dasharray:none;stroke-dashoffset:0;stroke-opacity:1" />
    <rect
       y="858.65271"
       x="518.04431"
       height="96.741371"
       width="96.741371"
       id="rect832"
       style="display:inline;opacity:1;vector-effect:none;fill:#000000;fill-opacity:1;stroke:none;stroke-width:4.41416883;stroke-linecap:butt;stroke-linejoin:miter;stroke-miterlimit:4;stroke-dasharray:none;stroke-dashoffset:0;stroke-opacity:1" />
    <g
       id="g967"
       transform="matrix(1.6531808,0,0,1.6531808,682.64427,-255.51712)">
      <rect
         y="-286.41217"
         x="-629.71637"
         height="54.428574"
         width="77.107147"
         id="rect957"
         style="opacity:1;vector-effect:none;fill:#ffffff;fill-opacity:1;stroke:none;stroke-width:0.35355976px;stroke-linecap:butt;stroke-linejoin:miter;stroke-miterlimit:4;stroke-dasharray:none;stroke-dashoffset:0;stroke-opacity:1" />
      <rect
         style="opacity:1;vector-effect:none;fill:#ffff00;fill-opacity:1;stroke:none;stroke-width:0.35355976px;stroke-linecap:butt;stroke-linejoin:miter;stroke-miterlimit:4;stroke-dasharray:none;stroke-dashoffset:0;stroke-opacity:1"
         id="rect959"
         width="300.86908"
         height="80.886909"
         x="-1182.6011"
         y="-4.9144025" />
      <rect
         y="-4.9144025"
         x="-881.73199"
         height="49.136906"
         width="102.0536"
         id="rect961"
         style="opacity:1;vector-effect:none;fill:#00ffff;fill-opacity:1;stroke:none;stroke-width:0.35355976px;stroke-linecap:butt;stroke-linejoin:miter;stroke-miterlimit:4;stroke-dasharray:none;stroke-dashoffset:0;stroke-opacity:1" />
      <path
         inkscape:connector-curvature="0"
         id="path955"
         d="M -975.84803,374.95166 H -1399.1813 V 44.222511 -286.50665 h 402.1666 402.16667 v 13.22917 13.22916 h 10.58333 10.58334 v -13.22916 -13.22917 h 10.58333 10.58334 V 44.222511 374.95166 Z M -1158.4105,49.514171 h 2.6458 v -7.9375 -7.9375 h 5.2917 5.2916 v -2.64583 -2.64583 h -5.2916 -5.2917 v -5.29167 -5.29167 h 10.5833 10.5834 v -2.64583 -2.64583 h -13.2292 -13.2292 v 18.52083 18.52083 z m 52.9166,0 h 7.9375 v -2.64583 -2.64583 h 2.6459 2.6458 v -13.22917 -13.22917 h -2.6458 -2.6459 v -2.64583 -2.64583 h -7.9375 -7.9375 v 2.64583 2.64583 h -2.6458 -2.6458 v 13.22917 13.22917 h 2.6458 2.6458 v 2.64583 2.64583 z m 0,-5.29166 h -7.9375 v -13.22917 -13.22917 h 7.9375 7.9375 v 13.22917 13.22917 z m 42.3334,5.29166 h 7.9375 v -2.64583 -2.64583 h 2.6458 2.6458 v -5.29167 -5.29167 h -2.6458 -2.6458 v -2.64583 -2.64583 h -7.9375 -7.9375 v -5.29167 -5.29167 h 7.9375 7.9375 v 2.64584 2.64583 h 2.6458 2.6458 v -2.64583 -2.64584 h -2.6458 -2.6458 v -2.64583 -2.64583 h -7.9375 -7.9375 v 2.64583 2.64583 h -2.6459 -2.6458 v 5.29167 5.29167 h 2.6458 2.6459 v 2.64583 2.64583 h 7.9375 7.9375 v 5.29167 5.29167 h -7.9375 -7.9375 v -2.64584 -2.64583 h -2.6459 -2.6458 v 2.64583 2.64584 h 2.6458 2.6459 v 2.64583 2.64583 z m 39.6875,0 h 10.5833 v -2.64583 -2.64583 h 2.6458 2.6459 v -13.22917 -13.22917 h -2.6459 -2.6458 v -2.64583 -2.64583 h -10.5833 -10.5834 v 18.52083 18.52083 z m 2.6458,-5.29166 h -7.9375 v -13.22917 -13.22917 h 7.9375 7.9375 v 13.22917 13.22917 z m 42.33333,5.29166 h 13.22917 v -2.64583 -2.64583 h -10.58333 -10.58334 v -5.29167 -5.29167 h 5.29167 5.29167 v -2.64583 -2.64583 h -5.29167 -5.29167 v -5.29167 -5.29167 h 10.58334 10.58333 v -2.64583 -2.64583 h -13.22917 -13.22917 v 18.52083 18.52083 z m 31.75,0 h 2.64584 v -13.22916 -13.22917 h 2.64583 2.64583 v 2.64583 2.64584 h 2.64584 2.64583 v -2.64584 -2.64583 h 2.64583 2.64584 v 13.22917 13.22916 h 2.64583 2.64583 v -18.52083 -18.52083 h -2.64583 -2.64583 v 2.64583 2.64583 h -2.64584 -2.64583 v 2.64584 2.64583 h -2.64583 -2.64584 v -2.64583 -2.64584 h -2.64583 -2.64583 v -2.64583 -2.64583 h -2.64584 -2.64583 v 18.52083 18.52083 z m 47.625,-21.16666 h 2.64584 v -2.64584 -2.64583 h 2.64583 2.64583 v -5.29167 -5.29166 h -2.64583 -2.64583 v 5.29166 5.29167 h -2.64584 -2.64583 v 2.64583 2.64584 z m 47.62501,-2.64584 h 13.22916 v -1.32291 -1.32292 h -10.58333 -10.58334 v -1.32292 -1.32291 h 2.64584 2.64583 v -1.32292 -1.32292 h 5.29167 5.29167 v -1.32291 -1.32292 h 2.64583 2.64583 v -2.64583 -2.6458398 h -2.64583 -2.64583 v -1.32291 -1.32292 h -7.9375 -7.93751 v 1.32292 1.32291 h -2.64583 -2.64583 v 1.3229198 1.32292 h 2.64583 2.64583 v -1.32292 -1.3229198 h 7.93751 7.9375 v 2.6458398 2.64583 h -5.29167 -5.29167 v 1.32292 1.32291 h -2.64583 -2.64584 v 1.32292 1.32292 h -2.64583 -2.64583 v 2.64583 2.64583 z m 42.33333,0 h 2.64583 v -1.32291 -1.32292 h 2.64584 2.64583 v -1.32292 -1.32291 h 2.64583 2.64584 v -3.96875 -3.96875 h -2.64584 -2.64583 v -1.32292 -1.3229198 h -2.64583 -2.64584 v -1.32291 -1.32292 h -2.64583 -2.64583 v 1.32292 1.32291 h -2.64584 -2.64583 v 1.3229198 1.32292 h -2.64583 -2.64584 v 3.96875 3.96875 h 2.64584 2.64583 v 1.32291 1.32292 h 2.64583 2.64584 v 1.32292 1.32291 z m 0,-2.64583 h -2.64583 v -1.32292 -1.32291 h -2.64584 -2.64583 v -3.96875 -3.96875 h 2.64583 2.64584 v -1.32292 -1.3229198 h 2.64583 2.64583 v 1.3229198 1.32292 h 2.64584 2.64583 v 3.96875 3.96875 h -2.64583 -2.64584 v 1.32291 1.32292 z m 223.57292,-288.395821 h -3.96875 v -1.32292 -1.32292 h -1.32292 -1.32292 v -6.61458 -6.61458 h 1.32292 1.32292 v -1.32292 -1.32292 h 3.96875 3.96875 v 1.32292 1.32292 h 1.32291 1.32292 v 1.32291 1.32292 h -1.32292 -1.32291 v -1.32292 -1.32291 h -3.96875 -3.96875 v 6.61458 6.61458 h 3.96875 3.96875 v -1.32291 -1.32292 h 1.32291 1.32292 v 1.32292 1.32291 h -1.32292 -1.32291 v 1.32292 1.32292 z"
         style="fill:#000000;stroke-width:0.26458332" />
    </g>
    <path
       inkscape:connector-curvature="0"
       id="path1451"
       style="font-style:normal;font-variant:normal;font-weight:bold;font-stretch:normal;font-size:74.85182953px;line-height:1.25;font-family:'IBM Plex Mono';-inkscape-font-specification:'IBM Plex Mono Bold';letter-spacing:0px;word-spacing:0px;fill:#9aa0a8;fill-opacity:1;stroke:none;stroke-width:1.87129581"
       d="m -153.74488,-675.2175 q -10.47925,0 -15.49432,-7.11092 -4.94022,-7.11093 -4.94022,-19.91059 0,-12.79966 4.94022,-19.91059 5.01507,-7.11092 15.49432,-7.11092 10.47926,0 15.41948,7.11092 5.01507,7.11093 5.01507,19.91059 0,12.79966 -5.01507,19.91059 -4.94022,7.11092 -15.41948,7.11092 z m 0,-8.83252 q 5.01508,0 6.96122,-3.51803 2.021,-3.51804 2.021,-9.80559 v -9.73074 q 0,-6.28755 -2.021,-9.80559 -1.94614,-3.51804 -6.96122,-3.51804 -5.01507,0 -7.03607,3.51804 -1.94614,3.51804 -1.94614,9.80559 v 9.73074 q 0,6.28755 1.94614,9.80559 2.021,3.51803 7.03607,3.51803 z m 0,-13.77273 q -2.61981,0 -3.66773,-1.04793 -0.97308,-1.04792 -0.97308,-2.54496 v -1.64674 q 0,-1.49704 0.97308,-2.54496 1.04792,-1.04793 3.66773,-1.04793 2.61982,0 3.59289,1.04793 1.04793,1.04792 1.04793,2.54496 v 1.64674 q 0,1.49704 -1.04793,2.54496 -0.97307,1.04793 -3.59289,1.04793 z" />
    <path
       inkscape:connector-curvature="0"
       id="path1453"
       style="font-style:normal;font-variant:normal;font-weight:bold;font-stretch:normal;font-size:74.85182953px;line-height:1.25;font-family:'IBM Plex Mono';-inkscape-font-specification:'IBM Plex Mono Bold';letter-spacing:0px;word-spacing:0px;fill:#9aa0a8;fill-opacity:1;stroke:none;stroke-width:1.87129581"
       d="m -107.66539,-675.2175 q -10.47925,0 -15.56918,-7.03607 -5.01507,-7.11093 -5.01507,-19.98544 0,-12.87452 5.01507,-19.91059 5.08993,-7.11092 15.56918,-7.11092 4.042,0 7.11093,1.12278 3.143773,1.04792 5.389328,2.99407 2.245555,1.94615 3.66774,4.71566 1.497037,2.76952 2.320407,6.21271 l -10.479256,2.54496 q -0.449109,-1.8713 -1.047929,-3.44319 -0.59881,-1.57188 -1.57189,-2.69466 -0.89822,-1.12278 -2.3204,-1.72159 -1.34734,-0.67367 -3.29348,-0.67367 -4.56596,0 -6.51211,3.59289 -1.8713,3.51803 -1.8713,9.80559 v 9.13192 q 0,6.28755 1.8713,9.88044 1.94615,3.51804 6.51211,3.51804 3.89229,0 5.61388,-2.39526 1.79645,-2.39526 2.619819,-6.13785 l 10.479256,2.54496 q -0.82337,3.44319 -2.320407,6.2127 -1.422185,2.76952 -3.66774,4.79052 -2.245555,1.94615 -5.389328,2.99407 -3.06893,1.04793 -7.11093,1.04793 z" />
    <path
       inkscape:connector-curvature="0"
       id="path1422"
       style="font-style:normal;font-variant:normal;font-weight:bold;font-stretch:normal;font-size:74.85182953px;line-height:1.25;font-family:'IBM Plex Mono';-inkscape-font-specification:'IBM Plex Mono Bold';letter-spacing:0px;word-spacing:0px;fill:#ffffff;fill-opacity:1;stroke:none;stroke-width:1.87129581"
       d="m -150.67595,-156.39714 v -10.03015 h -23.50347 v -9.58103 l 20.8088,-32.6354 h 13.47333 v 33.53362 h 6.73667 v 8.68281 h -6.73667 v 10.03015 z m -14.4464,-18.71296 h 14.4464 v -21.93158 h -0.67367 z" />
    <path
       inkscape:connector-curvature="0"
       id="path1424"
       style="font-style:normal;font-variant:normal;font-weight:bold;font-stretch:normal;font-size:74.85182953px;line-height:1.25;font-family:'IBM Plex Mono';-inkscape-font-specification:'IBM Plex Mono Bold';letter-spacing:0px;word-spacing:0px;fill:#ffffff;fill-opacity:1;stroke:none;stroke-width:1.87129581"
       d="m -108.41391,-155.49892 q -4.71566,0 -8.45825,-1.42218 -3.66774,-1.49704 -6.2127,-4.19171 -2.54497,-2.76951 -3.8923,-6.58696 -1.34733,-3.81744 -1.34733,-8.53311 0,-5.46418 1.72159,-10.32955 1.72159,-4.94022 4.41626,-9.05707 2.76952,-4.1917 6.13785,-7.48518 3.44318,-3.29348 6.81151,-5.53904 h 15.494333 q -4.865369,3.36833 -8.757663,6.51211 -3.81744,3.06893 -6.73667,6.2127 -2.84436,3.06893 -4.71566,6.36241 -1.79644,3.29348 -2.61981,7.11092 l 0.67366,0.22456 q 0.67367,-1.49704 1.64674,-2.91922 0.97308,-1.42219 2.39526,-2.47011 1.42219,-1.12278 3.29348,-1.79645 1.94615,-0.67366 4.49111,-0.67366 3.29348,0 6.137851,1.19763 2.844369,1.12277 4.865369,3.29348 2.095851,2.09585 3.29348,5.08992 1.19763,2.99407 1.19763,6.73667 0,3.96714 -1.422185,7.33547 -1.422185,3.36834 -4.041999,5.83845 -2.544962,2.39526 -6.212706,3.74259 -3.66774,1.34733 -8.15885,1.34733 z m -0.0748,-8.75766 q 4.042,0 6.13785,-2.09585 2.09585,-2.17071 2.09585,-6.063 v -1.04793 q 0,-3.89229 -2.1707,-5.91329 -2.09585,-2.09585 -6.063,-2.09585 -3.81744,0 -5.98814,2.09585 -2.17071,2.021 -2.17071,5.91329 v 1.04793 q 0,3.89229 2.021,6.063 2.09585,2.09585 6.13785,2.09585 z" />
    <path
       inkscape:connector-curvature="0"
       id="path1426"
       style="font-style:normal;font-variant:normal;font-weight:bold;font-stretch:normal;font-size:74.85182953px;line-height:1.25;font-family:'IBM Plex Mono';-inkscape-font-specification:'IBM Plex Mono Bold';letter-spacing:0px;word-spacing:0px;fill:#ffffff;fill-opacity:1;stroke:none;stroke-width:1.87129581"
       d="m -16.030381,-156.39714 v -10.03015 h -23.503475 v -9.58103 l 20.808809,-32.6354 h 13.4733293 v 33.53362 H 1.484947 v 8.68281 h -6.7366647 v 10.03015 z m -14.446403,-18.71296 h 14.446403 v -21.93158 h -0.673667 z" />
    <path
       inkscape:connector-curvature="0"
       id="path1428"
       style="font-style:normal;font-variant:normal;font-weight:bold;font-stretch:normal;font-size:74.85182953px;line-height:1.25;font-family:'IBM Plex Mono';-inkscape-font-specification:'IBM Plex Mono Bold';letter-spacing:0px;word-spacing:0px;fill:#ffffff;fill-opacity:1;stroke:none;stroke-width:1.87129581"
       d="m 9.4648615,-156.39714 v -52.24658 H 44.121259 v 9.20678 H 20.692636 v 11.97629 h 20.958512 v 9.20678 H 20.692636 v 21.85673 z" />
    <path
       inkscape:connector-curvature="0"
       id="path1430"
       style="font-style:normal;font-variant:normal;font-weight:bold;font-stretch:normal;font-size:74.85182953px;line-height:1.25;font-family:'IBM Plex Mono';-inkscape-font-specification:'IBM Plex Mono Bold';letter-spacing:0px;word-spacing:0px;fill:#ffffff;fill-opacity:1;stroke:none;stroke-width:1.87129581"
       d="m 132.53763,-198.83813 h -24.17714 l -1.19763,16.54226 h 0.67366 q 0.82337,-1.79645 1.8713,-3.29348 1.04793,-1.57189 2.47011,-2.61982 1.42219,-1.12278 3.29348,-1.72159 1.8713,-0.59881 4.26656,-0.59881 3.21862,0 6.06299,1.12277 2.91922,1.12278 5.08993,3.29348 2.24555,2.09585 3.51803,5.23963 1.27248,3.06893 1.27248,6.96122 0,3.96715 -1.34733,7.33548 -1.34733,3.36833 -3.96715,5.83844 -2.54496,2.47011 -6.3624,3.8923 -3.81744,1.34733 -8.68281,1.34733 -3.81745,0 -6.81152,-0.82337 -2.99407,-0.82337 -5.31448,-2.1707 -2.24555,-1.42219 -3.967146,-3.21863 -1.64674,-1.8713 -2.84437,-3.81744 l 8.158846,-6.43726 q 0.89823,1.49704 1.8713,2.84437 1.04793,1.34733 2.32041,2.39526 1.34733,0.97307 2.91922,1.57189 1.64674,0.52396 3.74259,0.52396 4.1917,0 6.28755,-2.24556 2.17071,-2.3204 2.17071,-6.13785 v -0.59881 q 0,-3.66774 -2.17071,-5.76359 -2.1707,-2.09585 -5.98814,-2.09585 -3.14378,0 -5.23963,1.27248 -2.021,1.19763 -3.06893,2.39526 l -9.206772,-1.27248 1.946152,-29.56648 h 32.41084 z" />
    <path
       inkscape:connector-curvature="0"
       id="path1432"
       style="font-style:normal;font-variant:normal;font-weight:bold;font-stretch:normal;font-size:74.85182953px;line-height:1.25;font-family:'IBM Plex Mono';-inkscape-font-specification:'IBM Plex Mono Bold';letter-spacing:0px;word-spacing:0px;fill:#ffffff;fill-opacity:1;stroke:none;stroke-width:1.87129581"
       d="m 158.55683,-187.98461 q 4.34141,0 6.28756,-1.64674 2.021,-1.64674 2.021,-4.042 v -0.52396 q 0,-2.84437 -1.94615,-4.49111 -1.8713,-1.7216 -5.38933,-1.7216 -3.21863,0 -6.063,1.64674 -2.76952,1.57189 -4.71567,4.56597 l -7.11092,-6.58697 q 1.49704,-1.94614 3.29348,-3.51803 1.79644,-1.64674 3.96715,-2.76952 2.1707,-1.19763 4.86537,-1.79644 2.76951,-0.67367 6.2127,-0.67367 4.26655,0 7.70974,0.97307 3.44318,0.97308 5.83844,2.84437 2.47011,1.79645 3.81744,4.34141 1.34734,2.54496 1.34734,5.68874 0,2.47011 -0.82337,4.49111 -0.82337,2.021 -2.24556,3.51803 -1.34733,1.49704 -3.21863,2.47012 -1.79644,0.89822 -3.89229,1.27248 v 0.44911 q 4.79051,0.82337 7.93429,4.042 3.21863,3.14377 3.21863,8.5331 0,3.51804 -1.49704,6.36241 -1.42218,2.84437 -4.11685,4.86537 -2.61981,2.021 -6.43726,3.14378 -3.74259,1.04792 -8.3834,1.04792 -3.96715,0 -7.03607,-0.82337 -2.99408,-0.82337 -5.31448,-2.1707 -2.32041,-1.42219 -4.042,-3.21863 -1.64674,-1.8713 -2.91922,-3.81744 l 8.30855,-6.43726 q 1.72159,3.21863 4.26656,5.31448 2.61981,2.021 6.96122,2.021 4.04199,0 6.2127,-1.8713 2.1707,-1.87129 2.1707,-5.16477 v -0.52397 q 0,-3.21863 -2.47011,-4.79051 -2.47011,-1.64674 -6.88637,-1.64674 h -4.86537 v -9.35648 z" />
    <path
       inkscape:connector-curvature="0"
       id="path1434"
       style="font-style:normal;font-variant:normal;font-weight:bold;font-stretch:normal;font-size:74.85182953px;line-height:1.25;font-family:'IBM Plex Mono';-inkscape-font-specification:'IBM Plex Mono Bold';letter-spacing:0px;word-spacing:0px;fill:#ffffff;fill-opacity:1;stroke:none;stroke-width:1.87129581"
       d="m 253.26079,-156.39714 v -10.03015 h -23.50348 v -9.58103 l 20.80881,-32.6354 h 13.47333 v 33.53362 h 6.73667 v 8.68281 h -6.73667 v 10.03015 z m -14.44641,-18.71296 h 14.44641 v -21.93158 h -0.67367 z" />
    <path
       inkscape:connector-curvature="0"
       id="path1436"
       style="font-style:normal;font-variant:normal;font-weight:bold;font-stretch:normal;font-size:74.85182953px;line-height:1.25;font-family:'IBM Plex Mono';-inkscape-font-specification:'IBM Plex Mono Bold';letter-spacing:0px;word-spacing:0px;fill:#ffffff;fill-opacity:1;stroke:none;stroke-width:1.87129581"
       d="m 298.14265,-156.39714 v -10.03015 h -23.50347 v -9.58103 l 20.80881,-32.6354 h 13.47333 v 33.53362 h 6.73666 v 8.68281 h -6.73666 v 10.03015 z m -14.4464,-18.71296 h 14.4464 v -21.93158 h -0.67366 z" />
    <path
       inkscape:connector-curvature="0"
       id="path1438"
       style="font-style:normal;font-variant:normal;font-weight:bold;font-stretch:normal;font-size:74.85182953px;line-height:1.25;font-family:'IBM Plex Mono';-inkscape-font-specification:'IBM Plex Mono Bold';letter-spacing:0px;word-spacing:0px;fill:#ffffff;fill-opacity:1;stroke:none;stroke-width:1.87129581"
       d="m 387.90633,-156.39714 v -10.03015 h -23.50348 v -9.58103 l 20.80881,-32.6354 h 13.47333 v 33.53362 h 6.73666 v 8.68281 h -6.73666 v 10.03015 z m -14.44641,-18.71296 h 14.44641 v -21.93158 h -0.67367 z" />
    <path
       inkscape:connector-curvature="0"
       id="path1440"
       style="font-style:normal;font-variant:normal;font-weight:bold;font-stretch:normal;font-size:74.85182953px;line-height:1.25;font-family:'IBM Plex Mono';-inkscape-font-specification:'IBM Plex Mono Bold';letter-spacing:0px;word-spacing:0px;fill:#ffffff;fill-opacity:1;stroke:none;stroke-width:1.87129581"
       d="m 446.71066,-198.83813 h -24.17714 l -1.19763,16.54226 h 0.67367 q 0.82337,-1.79645 1.87129,-3.29348 1.04793,-1.57189 2.47012,-2.61982 1.42218,-1.12278 3.29348,-1.72159 1.87129,-0.59881 4.26655,-0.59881 3.21863,0 6.063,1.12277 2.91922,1.12278 5.08992,3.29348 2.24556,2.09585 3.51804,5.23963 1.27248,3.06893 1.27248,6.96122 0,3.96715 -1.34733,7.33548 -1.34734,3.36833 -3.96715,5.83844 -2.54496,2.47011 -6.36241,3.8923 -3.81744,1.34733 -8.68281,1.34733 -3.81744,0 -6.81151,-0.82337 -2.99408,-0.82337 -5.31448,-2.1707 -2.24556,-1.42219 -3.96715,-3.21863 -1.64674,-1.8713 -2.84437,-3.81744 l 8.15885,-6.43726 q 0.89822,1.49704 1.87129,2.84437 1.04793,1.34733 2.32041,2.39526 1.34733,0.97307 2.91922,1.57189 1.64674,0.52396 3.74259,0.52396 4.19171,0 6.28756,-2.24556 2.1707,-2.3204 2.1707,-6.13785 v -0.59881 q 0,-3.66774 -2.1707,-5.76359 -2.17071,-2.09585 -5.98815,-2.09585 -3.14378,0 -5.23963,1.27248 -2.021,1.19763 -3.06892,2.39526 l -9.20678,-1.27248 1.94615,-29.56648 h 32.41084 z" />
    <path
       inkscape:connector-curvature="0"
       id="path1442"
       style="font-style:normal;font-variant:normal;font-weight:bold;font-stretch:normal;font-size:74.85182953px;line-height:1.25;font-family:'IBM Plex Mono';-inkscape-font-specification:'IBM Plex Mono Bold';letter-spacing:0px;word-spacing:0px;fill:#ffffff;fill-opacity:1;stroke:none;stroke-width:1.87129581"
       d="m 522.55196,-156.39714 v -10.03015 h -23.50348 v -9.58103 l 20.80881,-32.6354 h 13.47333 v 33.53362 h 6.73666 v 8.68281 h -6.73666 v 10.03015 z m -14.44641,-18.71296 h 14.44641 v -21.93158 h -0.67367 z" />
    <path
       inkscape:connector-curvature="0"
       id="path1444"
       style="font-style:normal;font-variant:normal;font-weight:bold;font-stretch:normal;font-size:74.85182953px;line-height:1.25;font-family:'IBM Plex Mono';-inkscape-font-specification:'IBM Plex Mono Bold';letter-spacing:0px;word-spacing:0px;fill:#ffffff;fill-opacity:1;stroke:none;stroke-width:1.87129581"
       d="m 546.84954,-208.64372 h 16.84166 q 10.55411,0 15.64403,6.73667 5.08993,6.73666 5.08993,19.38662 0,12.64996 -5.08993,19.38662 -5.08992,6.73667 -15.64403,6.73667 h -16.84166 z m 16.09314,43.41406 q 5.01507,0 7.33548,-3.21863 2.32041,-3.21862 2.32041,-9.35647 v -9.50619 q 0,-6.06299 -2.32041,-9.28162 -2.32041,-3.21863 -7.33548,-3.21863 h -5.01507 v 34.58154 z" />
    <path
       inkscape:connector-curvature="0"
       id="path1446"
       style="font-style:normal;font-variant:normal;font-weight:bold;font-stretch:normal;font-size:74.85182953px;line-height:1.25;font-family:'IBM Plex Mono';-inkscape-font-specification:'IBM Plex Mono Bold';letter-spacing:0px;word-spacing:0px;fill:#ffffff;fill-opacity:1;stroke:none;stroke-width:1.87129581"
       d="M 673.36552,-156.39714 H 635.7899 v -10.2547 l 16.4674,-13.69789 q 4.26656,-3.66774 6.13785,-6.3624 1.8713,-2.69467 1.8713,-5.68874 v -0.74852 q 0,-3.29348 -1.94615,-4.94022 -1.94615,-1.72159 -5.23963,-1.72159 -3.74259,0 -5.76359,2.1707 -2.021,2.1707 -2.84437,5.16478 l -9.80559,-3.74259 q 0.89823,-2.69467 2.47011,-5.08993 1.57189,-2.47011 3.96715,-4.26655 2.47011,-1.79645 5.68874,-2.84437 3.21863,-1.12278 7.41033,-1.12278 4.26656,0 7.63489,1.19763 3.36833,1.19763 5.68874,3.29348 2.3204,2.09585 3.51803,5.01507 1.19763,2.84437 1.19763,6.2127 0,3.29349 -1.12278,6.063 -1.04792,2.69467 -2.99407,5.08993 -1.87129,2.39526 -4.49111,4.64081 -2.54496,2.24556 -5.46418,4.49111 l -9.9553,7.70974 h 25.15022 z" />
    <path
       inkscape:connector-curvature="0"
       id="path1448"
       style="font-style:normal;font-variant:normal;font-weight:bold;font-stretch:normal;font-size:74.85182953px;line-height:1.25;font-family:'IBM Plex Mono';-inkscape-font-specification:'IBM Plex Mono Bold';letter-spacing:0px;word-spacing:0px;fill:#ffffff;fill-opacity:1;stroke:none;stroke-width:1.87129581"
       d="m 688.98029,-156.39714 17.96444,-43.11465 h -16.91651 v 9.50618 h -9.50619 v -18.63811 h 37.57562 v 9.73074 l -17.29077,42.51584 z" />
    <path
       inkscape:connector-curvature="0"
       id="path1413"
       style="font-style:normal;font-variant:normal;font-weight:bold;font-stretch:normal;font-size:74.85182953px;line-height:1.25;font-family:'IBM Plex Mono';-inkscape-font-specification:'IBM Plex Mono Bold';letter-spacing:0px;word-spacing:0px;fill:#9aa0a8;fill-opacity:1;stroke:none;stroke-width:1.87129581"
       d="m -169.76317,-26.467495 v -9.057071 h 14.07215 v -35.030657 h -0.67367 l -10.62896,13.922441 -7.18578,-5.613887 12.50026,-16.467403 h 17.21592 v 43.189506 h 11.07807 v 9.057071 z" />
    <path
       inkscape:connector-curvature="0"
       id="path1415"
       style="font-style:normal;font-variant:normal;font-weight:bold;font-stretch:normal;font-size:74.85182953px;line-height:1.25;font-family:'IBM Plex Mono';-inkscape-font-specification:'IBM Plex Mono Bold';letter-spacing:0px;word-spacing:0px;fill:#9aa0a8;fill-opacity:1;stroke:none;stroke-width:1.87129581"
       d="m -126.15379,-78.714072 h 18.3387 q 7.70974,0 11.751735,3.742592 4.116851,3.742591 4.116851,10.179848 0,4.49111 -2.245555,7.185776 -2.170703,2.619814 -6.287551,3.817443 v 0.449111 q 4.865366,1.19763 7.48518,4.191703 2.694666,2.994073 2.694666,8.308553 0,6.586961 -4.191703,10.479256 -4.11685,3.892295 -11.602033,3.892295 h -20.06029 z m 16.61711,44.387135 q 4.04199,0 5.91329,-1.347333 1.8713,-1.347333 1.8713,-4.940221 v -2.170703 q 0,-3.592888 -1.8713,-4.940221 -1.8713,-1.347332 -5.91329,-1.347332 h -5.68874 v 14.74581 z m -1.42219,-22.230993 q 3.96715,0 5.76359,-1.272482 1.79645,-1.347332 1.79645,-4.790517 v -2.245555 q 0,-3.443184 -1.79645,-4.715665 -1.79644,-1.272481 -5.76359,-1.272481 h -4.26655 v 14.2967 z" />
    <path
       inkscape:connector-curvature="0"
       id="path1417"
       style="font-style:normal;font-variant:normal;font-weight:bold;font-stretch:normal;font-size:74.85182953px;line-height:1.25;font-family:'IBM Plex Mono';-inkscape-font-specification:'IBM Plex Mono Bold';letter-spacing:0px;word-spacing:0px;fill:#ffffff;fill-opacity:1;stroke:none;stroke-width:1.87129581"
       d="M -16.778901,-26.467495 V -36.49764 h -23.503475 v -9.581034 l 20.808809,-32.635398 h 13.4733294 v 33.53362 h 6.73666466 v 8.682812 H -6.0002376 v 10.030145 z m -14.446403,-18.712957 h 14.446403 v -21.931586 h -0.673667 z" />
    <path
       inkscape:connector-curvature="0"
       id="path1419"
       style="font-style:normal;font-variant:normal;font-weight:bold;font-stretch:normal;font-size:74.85182953px;line-height:1.25;font-family:'IBM Plex Mono';-inkscape-font-specification:'IBM Plex Mono Bold';letter-spacing:0px;word-spacing:0px;fill:#ffffff;fill-opacity:1;stroke:none;stroke-width:1.87129581"
       d="M 8.7163416,-26.467495 V -78.714072 H 42.100258 v 9.206775 H 19.944116 v 11.976293 h 21.407623 v 9.206775 H 19.944116 v 12.649959 h 22.156142 v 9.206775 z" />
    <path
       inkscape:connector-curvature="0"
       id="path1404"
       style="font-style:normal;font-variant:normal;font-weight:bold;font-stretch:normal;font-size:74.85182953px;line-height:1.25;font-family:'IBM Plex Mono';-inkscape-font-specification:'IBM Plex Mono Bold';letter-spacing:0px;word-spacing:0px;fill:#ffffff;fill-opacity:1;stroke:none;stroke-width:1.87129581"
       d="m -155.54133,331.73397 q 4.34141,0 6.28756,-1.64674 2.021,-1.64674 2.021,-4.042 v -0.52396 q 0,-2.84437 -1.94615,-4.49111 -1.8713,-1.72159 -5.38933,-1.72159 -3.21863,0 -6.063,1.64674 -2.76952,1.57188 -4.71567,4.56596 l -7.11092,-6.58696 q 1.49704,-1.94615 3.29348,-3.51804 1.79644,-1.64674 3.96715,-2.76952 2.1707,-1.19763 4.86537,-1.79644 2.76951,-0.67367 6.2127,-0.67367 4.26655,0 7.70974,0.97308 3.44318,0.97307 5.83844,2.84437 2.47011,1.79644 3.81744,4.3414 1.34734,2.54496 1.34734,5.68874 0,2.47011 -0.82337,4.49111 -0.82337,2.021 -2.24556,3.51804 -1.34733,1.49703 -3.21863,2.47011 -1.79644,0.89822 -3.89229,1.27248 v 0.44911 q 4.79051,0.82337 7.93429,4.042 3.21863,3.14377 3.21863,8.53311 0,3.51803 -1.49704,6.3624 -1.42218,2.84437 -4.11685,4.86537 -2.61981,2.021 -6.43726,3.14378 -3.74259,1.04792 -8.3834,1.04792 -3.96715,0 -7.03607,-0.82337 -2.99408,-0.82337 -5.31448,-2.1707 -2.32041,-1.42218 -4.042,-3.21863 -1.64674,-1.87129 -2.91922,-3.81744 l 8.30855,-6.43726 q 1.72159,3.21863 4.26656,5.31448 2.61981,2.021 6.96122,2.021 4.04199,0 6.2127,-1.8713 2.1707,-1.87129 2.1707,-5.16477 v -0.52396 q 0,-3.21863 -2.47011,-4.79052 -2.47011,-1.64674 -6.88637,-1.64674 h -4.86537 v -9.35648 z" />
    <path
       inkscape:connector-curvature="0"
       id="path1406"
       style="font-style:normal;font-variant:normal;font-weight:bold;font-stretch:normal;font-size:74.85182953px;line-height:1.25;font-family:'IBM Plex Mono';-inkscape-font-specification:'IBM Plex Mono Bold';letter-spacing:0px;word-spacing:0px;fill:#ffffff;fill-opacity:1;stroke:none;stroke-width:1.87129581"
       d="m -89.551252,363.32144 h -37.575618 v -10.2547 l 16.4674,-13.69788 q 4.26656,-3.66774 6.13785,-6.36241 1.8713,-2.69467 1.8713,-5.68874 v -0.74852 q 0,-3.29348 -1.94615,-4.94022 -1.94615,-1.72159 -5.23963,-1.72159 -3.74259,0 -5.76359,2.1707 -2.021,2.17071 -2.84437,5.16478 l -9.80559,-3.74259 q 0.89822,-2.69467 2.47011,-5.08993 1.57189,-2.47011 3.96715,-4.26655 2.47011,-1.79644 5.68874,-2.84437 3.21863,-1.12278 7.41033,-1.12278 4.26655,0 7.63489,1.19763 3.368329,1.19763 5.688736,3.29348 2.320406,2.09585 3.518036,5.01508 1.197629,2.84436 1.197629,6.2127 0,3.29348 -1.122778,6.063 -1.047925,2.69466 -2.994073,5.08992 -1.871295,2.39526 -4.491109,4.64081 -2.544961,2.24556 -5.464181,4.49111 l -9.9553,7.70974 h 25.150218 z" />
    <path
       inkscape:connector-curvature="0"
       id="path1408"
       style="font-style:normal;font-variant:normal;font-weight:bold;font-stretch:normal;font-size:74.85182953px;line-height:1.25;font-family:'IBM Plex Mono';-inkscape-font-specification:'IBM Plex Mono Bold';letter-spacing:0px;word-spacing:0px;fill:#ffffff;fill-opacity:1;stroke:none;stroke-width:1.87129581"
       d="m -20.895758,331.73397 q 4.341407,0 6.287554,-1.64674 2.021,-1.64674 2.021,-4.042 v -0.52396 q 0,-2.84437 -1.946148,-4.49111 -1.871296,-1.72159 -5.389332,-1.72159 -3.218628,0 -6.062998,1.64674 -2.769518,1.57188 -4.715665,4.56596 l -7.110924,-6.58696 q 1.497037,-1.94615 3.29348,-3.51804 1.796444,-1.64674 3.967147,-2.76952 2.170704,-1.19763 4.865369,-1.79644 2.769518,-0.67367 6.212702,-0.67367 4.266554,0 7.709739,0.97308 3.4431838,0.97307 5.8384424,2.84437 2.4701103,1.79644 3.8174433,4.3414 1.3473329,2.54496 1.3473329,5.68874 0,2.47011 -0.8233701,4.49111 -0.8233702,2.021 -2.2455549,3.51804 -1.3473329,1.49703 -3.2186287,2.47011 -1.7964439,0.89822 -3.8922949,1.27248 v 0.44911 q 4.7905169,0.82337 7.9342937,4.042 3.21862868,3.14377 3.21862868,8.53311 0,3.51803 -1.49703658,6.3624 -1.4221848,2.84437 -4.1168506,4.86537 -2.6198141,2.021 -6.4372572,3.14378 -3.742592,1.04792 -8.383405,1.04792 -3.967147,0 -7.036072,-0.82337 -2.994073,-0.82337 -5.31448,-2.1707 -2.320407,-1.42218 -4.041999,-3.21863 -1.64674,-1.87129 -2.919221,-3.81744 l 8.308553,-6.43726 q 1.721592,3.21863 4.266554,5.31448 2.619814,2.021 6.96122,2.021 4.041999,0 6.212702,-1.8713 2.170703,-1.87129 2.170703,-5.16477 v -0.52396 q 0,-3.21863 -2.47011,-4.79052 -2.47011,-1.64674 -6.886368,-1.64674 h -4.865369 v -9.35648 z" />
    <path
       inkscape:connector-curvature="0"
       id="path1410"
       style="font-style:normal;font-variant:normal;font-weight:bold;font-stretch:normal;font-size:74.85182953px;line-height:1.25;font-family:'IBM Plex Mono';-inkscape-font-specification:'IBM Plex Mono Bold';letter-spacing:0px;word-spacing:0px;fill:#ffffff;fill-opacity:1;stroke:none;stroke-width:1.87129581"
       d="m 26.007108,364.21966 q -10.479256,0 -15.494328,-7.11092 -4.9402212,-7.11092 -4.9402212,-19.91059 0,-12.79966 4.9402212,-19.91058 5.015072,-7.11093 15.494328,-7.11093 10.479256,0 15.419477,7.11093 5.015073,7.11092 5.015073,19.91058 0,12.79967 -5.015073,19.91059 -4.940221,7.11092 -15.419477,7.11092 z m 0,-8.83251 q 5.015073,0 6.96122,-3.51804 2.021,-3.51803 2.021,-9.80559 v -9.73074 q 0,-6.28755 -2.021,-9.80559 -1.946147,-3.51803 -6.96122,-3.51803 -5.015072,0 -7.036072,3.51803 -1.946147,3.51804 -1.946147,9.80559 v 9.73074 q 0,6.28756 1.946147,9.80559 2.021,3.51804 7.036072,3.51804 z m 0,-13.77274 q -2.619814,0 -3.667739,-1.04792 -0.973074,-1.04793 -0.973074,-2.54497 v -1.64674 q 0,-1.49703 0.973074,-2.54496 1.047925,-1.04792 3.667739,-1.04792 2.619814,0 3.592888,1.04792 1.047926,1.04793 1.047926,2.54496 v 1.64674 q 0,1.49704 -1.047926,2.54497 -0.973074,1.04792 -3.592888,1.04792 z" />
    <path
       inkscape:connector-curvature="0"
       id="path1391"
       style="font-style:normal;font-variant:normal;font-weight:bold;font-stretch:normal;font-size:74.85182953px;line-height:1.25;font-family:'IBM Plex Mono';-inkscape-font-specification:'IBM Plex Mono Bold';letter-spacing:0px;word-spacing:0px;fill:#9aa0a8;fill-opacity:1;stroke:none;stroke-width:1.87129581"
       d="m -169.76317,-546.1861 v -9.05707 h 14.07215 v -35.03065 h -0.67367 l -10.62896,13.92244 -7.18578,-5.61389 12.50026,-16.4674 h 17.21592 v 43.1895 h 11.07807 v 9.05707 z" />
    <path
       inkscape:connector-curvature="0"
       id="path1393"
       style="font-style:normal;font-variant:normal;font-weight:bold;font-stretch:normal;font-size:74.85182953px;line-height:1.25;font-family:'IBM Plex Mono';-inkscape-font-specification:'IBM Plex Mono Bold';letter-spacing:0px;word-spacing:0px;fill:#9aa0a8;fill-opacity:1;stroke:none;stroke-width:1.87129581"
       d="m -125.92923,-546.1861 v -52.24657 h 34.656392 v 9.20677 h -23.428622 v 11.97629 h 20.958512 v 9.20678 h -20.958512 v 21.85673 z" />
    <path
       inkscape:connector-curvature="0"
       id="path1395"
       style="font-style:normal;font-variant:normal;font-weight:bold;font-stretch:normal;font-size:74.85182953px;line-height:1.25;font-family:'IBM Plex Mono';-inkscape-font-specification:'IBM Plex Mono Bold';letter-spacing:0px;word-spacing:0px;fill:#ffffff;fill-opacity:1;stroke:none;stroke-width:1.87129581"
       d="m -16.778901,-546.1861 v -10.03014 h -23.503475 v -9.58104 l 20.808809,-32.63539 h 13.4733294 v 33.53362 h 6.73666466 v 8.68281 H -6.0002376 v 10.03014 z m -14.446403,-18.71295 h 14.446403 v -21.93159 h -0.673667 z" />
    <path
       inkscape:connector-curvature="0"
       id="path1397"
       style="font-style:normal;font-variant:normal;font-weight:bold;font-stretch:normal;font-size:74.85182953px;line-height:1.25;font-family:'IBM Plex Mono';-inkscape-font-specification:'IBM Plex Mono Bold';letter-spacing:0px;word-spacing:0px;fill:#ffffff;fill-opacity:1;stroke:none;stroke-width:1.87129581"
       d="m 26.381373,-545.28787 q -10.479256,0 -15.56918,-7.03608 -5.0150728,-7.11092 -5.0150728,-19.98543 0,-12.87452 5.0150728,-19.91059 5.089924,-7.11093 15.56918,-7.11093 4.041999,0 7.110924,1.12278 3.143777,1.04793 5.389332,2.99408 2.245555,1.94614 3.667739,4.71566 1.497037,2.76952 2.320407,6.2127 l -10.479256,2.54496 q -0.449111,-1.87129 -1.047926,-3.44318 -0.598814,-1.57189 -1.571888,-2.69467 -0.898222,-1.12277 -2.320407,-1.72159 -1.347333,-0.67366 -3.29348,-0.67366 -4.565962,0 -6.512109,3.59288 -1.871296,3.51804 -1.871296,9.80559 v 9.13193 q 0,6.28755 1.871296,9.88044 1.946147,3.51803 6.512109,3.51803 3.892295,0 5.613887,-2.39525 1.796444,-2.39526 2.619814,-6.13785 l 10.479256,2.54496 q -0.82337,3.44318 -2.320407,6.2127 -1.422184,2.76952 -3.667739,4.79052 -2.245555,1.94614 -5.389332,2.99407 -3.068925,1.04793 -7.110924,1.04793 z" />
    <path
       inkscape:connector-curvature="0"
       id="path1399"
       style="font-style:normal;font-variant:normal;font-weight:bold;font-stretch:normal;font-size:74.85182953px;line-height:1.25;font-family:'IBM Plex Mono';-inkscape-font-specification:'IBM Plex Mono Bold';letter-spacing:0px;word-spacing:0px;fill:#ffffff;fill-opacity:1;stroke:none;stroke-width:1.87129581"
       d="m 117.86667,-546.1861 v -10.03014 H 94.363193 v -9.58104 L 115.172,-598.43267 h 13.47333 v 33.53362 h 6.73667 v 8.68281 h -6.73667 v 10.03014 z m -14.44641,-18.71295 h 14.44641 v -21.93159 H 117.193 Z" />
    <path
       inkscape:connector-curvature="0"
       id="path1401"
       style="font-style:normal;font-variant:normal;font-weight:bold;font-stretch:normal;font-size:74.85182953px;line-height:1.25;font-family:'IBM Plex Mono';-inkscape-font-specification:'IBM Plex Mono Bold';letter-spacing:0px;word-spacing:0px;fill:#ffffff;fill-opacity:1;stroke:none;stroke-width:1.87129581"
       d="m 161.02694,-545.28787 q -10.47925,0 -15.56918,-7.03608 -5.01507,-7.11092 -5.01507,-19.98543 0,-12.87452 5.01507,-19.91059 5.08993,-7.11093 15.56918,-7.11093 4.042,0 7.11093,1.12278 3.14377,1.04793 5.38933,2.99408 2.24555,1.94614 3.66774,4.71566 1.49703,2.76952 2.3204,6.2127 l -10.47925,2.54496 q -0.44911,-1.87129 -1.04793,-3.44318 -0.59881,-1.57189 -1.57189,-2.69467 -0.89822,-1.12277 -2.3204,-1.72159 -1.34734,-0.67366 -3.29348,-0.67366 -4.56596,0 -6.51211,3.59288 -1.8713,3.51804 -1.8713,9.80559 v 9.13193 q 0,6.28755 1.8713,9.88044 1.94615,3.51803 6.51211,3.51803 3.89229,0 5.61388,-2.39525 1.79645,-2.39526 2.61982,-6.13785 l 10.47925,2.54496 q -0.82337,3.44318 -2.3204,6.2127 -1.42219,2.76952 -3.66774,4.79052 -2.24556,1.94614 -5.38933,2.99407 -3.06893,1.04793 -7.11093,1.04793 z" />
    <path
       inkscape:connector-curvature="0"
       id="path1382"
       style="font-style:normal;font-variant:normal;font-weight:bold;font-stretch:normal;font-size:74.85182953px;line-height:1.25;font-family:'IBM Plex Mono';-inkscape-font-specification:'IBM Plex Mono Bold';letter-spacing:0px;word-spacing:0px;fill:#9aa0a8;fill-opacity:1;stroke:none;stroke-width:1.87129581"
       d="m -169.76317,-416.25644 v -9.05707 h 14.07215 v -35.03066 h -0.67367 l -10.62896,13.92244 -7.18578,-5.61388 12.50026,-16.46741 h 17.21592 v 43.18951 h 11.07807 v 9.05707 z" />
    <path
       inkscape:connector-curvature="0"
       id="path1384"
       style="font-style:normal;font-variant:normal;font-weight:bold;font-stretch:normal;font-size:74.85182953px;line-height:1.25;font-family:'IBM Plex Mono';-inkscape-font-specification:'IBM Plex Mono Bold';letter-spacing:0px;word-spacing:0px;fill:#9aa0a8;fill-opacity:1;stroke:none;stroke-width:1.87129581"
       d="m -126.15379,-468.50302 h 18.3387 q 7.70974,0 11.751735,3.7426 4.116851,3.74259 4.116851,10.17984 0,4.49111 -2.245555,7.18578 -2.170703,2.61981 -6.287551,3.81744 v 0.44911 q 4.865366,1.19763 7.48518,4.19171 2.694666,2.99407 2.694666,8.30855 0,6.58696 -4.191703,10.47926 -4.11685,3.89229 -11.602033,3.89229 h -20.06029 z m 16.61711,44.38714 q 4.04199,0 5.91329,-1.34733 1.8713,-1.34734 1.8713,-4.94022 v -2.17071 q 0,-3.59289 -1.8713,-4.94022 -1.8713,-1.34733 -5.91329,-1.34733 h -5.68874 v 14.74581 z m -1.42219,-22.23099 q 3.96715,0 5.76359,-1.27249 1.79645,-1.34733 1.79645,-4.79051 v -2.24556 q 0,-3.44318 -1.79645,-4.71566 -1.79644,-1.27248 -5.76359,-1.27248 h -4.26655 v 14.2967 z" />
    <path
       inkscape:connector-curvature="0"
       id="path1386"
       style="font-style:normal;font-variant:normal;font-weight:bold;font-stretch:normal;font-size:74.85182953px;line-height:1.25;font-family:'IBM Plex Mono';-inkscape-font-specification:'IBM Plex Mono Bold';letter-spacing:0px;word-spacing:0px;fill:#ffffff;fill-opacity:1;stroke:none;stroke-width:1.87129581"
       d="m -16.778901,-416.25644 v -10.03014 h -23.503475 v -9.58104 l 20.808809,-32.6354 h 13.4733294 v 33.53362 h 6.73666466 v 8.68282 H -6.0002376 v 10.03014 z m -14.446403,-18.71296 h 14.446403 v -21.93158 h -0.673667 z" />
    <path
       inkscape:connector-curvature="0"
       id="path1388"
       style="font-style:normal;font-variant:normal;font-weight:bold;font-stretch:normal;font-size:74.85182953px;line-height:1.25;font-family:'IBM Plex Mono';-inkscape-font-specification:'IBM Plex Mono Bold';letter-spacing:0px;word-spacing:0px;fill:#ffffff;fill-opacity:1;stroke:none;stroke-width:1.87129581"
       d="m 8.7163416,-416.25644 v -52.24658 H 43.372739 v 9.20678 H 19.944116 v 11.97629 h 20.958512 v 9.20678 H 19.944116 v 21.85673 z" />
    <path
       inkscape:connector-curvature="0"
       id="path1373"
       style="font-style:normal;font-variant:normal;font-weight:bold;font-stretch:normal;font-size:74.85182953px;line-height:1.25;font-family:'IBM Plex Mono';-inkscape-font-specification:'IBM Plex Mono Bold';letter-spacing:0px;word-spacing:0px;fill:#9aa0a8;fill-opacity:1;stroke:none;stroke-width:1.87129581"
       d="m -169.76317,-286.32678 v -9.05707 h 14.07215 v -35.03066 h -0.67367 l -10.62896,13.92244 -7.18578,-5.61389 12.50026,-16.4674 h 17.21592 v 43.18951 h 11.07807 v 9.05707 z" />
    <path
       inkscape:connector-curvature="0"
       id="path1375"
       style="font-style:normal;font-variant:normal;font-weight:bold;font-stretch:normal;font-size:74.85182953px;line-height:1.25;font-family:'IBM Plex Mono';-inkscape-font-specification:'IBM Plex Mono Bold';letter-spacing:0px;word-spacing:0px;fill:#9aa0a8;fill-opacity:1;stroke:none;stroke-width:1.87129581"
       d="m -126.15379,-338.57336 h 18.3387 q 7.70974,0 11.751735,3.74259 4.116851,3.74259 4.116851,10.17985 0,4.49111 -2.245555,7.18578 -2.170703,2.61981 -6.287551,3.81744 v 0.44911 q 4.865366,1.19763 7.48518,4.1917 2.694666,2.99408 2.694666,8.30856 0,6.58696 -4.191703,10.47925 -4.11685,3.8923 -11.602033,3.8923 h -20.06029 z m 16.61711,44.38714 q 4.04199,0 5.91329,-1.34734 1.8713,-1.34733 1.8713,-4.94022 v -2.1707 q 0,-3.59289 -1.8713,-4.94022 -1.8713,-1.34733 -5.91329,-1.34733 h -5.68874 v 14.74581 z m -1.42219,-22.231 q 3.96715,0 5.76359,-1.27248 1.79645,-1.34733 1.79645,-4.79052 v -2.24555 q 0,-3.44318 -1.79645,-4.71567 -1.79644,-1.27248 -5.76359,-1.27248 h -4.26655 v 14.2967 z" />
    <path
       inkscape:connector-curvature="0"
       id="path1377"
       style="font-style:normal;font-variant:normal;font-weight:bold;font-stretch:normal;font-size:74.85182953px;line-height:1.25;font-family:'IBM Plex Mono';-inkscape-font-specification:'IBM Plex Mono Bold';letter-spacing:0px;word-spacing:0px;fill:#ffffff;fill-opacity:1;stroke:none;stroke-width:1.87129581"
       d="m -16.778901,-286.32678 v -10.03015 h -23.503475 v -9.58103 l 20.808809,-32.6354 h 13.4733294 v 33.53362 h 6.73666466 v 8.68281 H -6.0002376 v 10.03015 z m -14.446403,-18.71296 h 14.446403 v -21.93159 h -0.673667 z" />
    <path
       inkscape:connector-curvature="0"
       id="path1379"
       style="font-style:normal;font-variant:normal;font-weight:bold;font-stretch:normal;font-size:74.85182953px;line-height:1.25;font-family:'IBM Plex Mono';-inkscape-font-specification:'IBM Plex Mono Bold';letter-spacing:0px;word-spacing:0px;fill:#ffffff;fill-opacity:1;stroke:none;stroke-width:1.87129581"
       d="m 23.162745,-317.91425 q 4.341406,0 6.287553,-1.64674 2.021,-1.64674 2.021,-4.042 v -0.52397 q 0,-2.84437 -1.946148,-4.49111 -1.871296,-1.72159 -5.389332,-1.72159 -3.218628,0 -6.062998,1.64674 -2.769517,1.57189 -4.715665,4.56596 l -7.1109238,-6.58696 q 1.4970366,-1.94614 3.2934805,-3.51803 1.7964443,-1.64674 3.9671473,-2.76952 2.170703,-1.19763 4.865369,-1.79644 2.769517,-0.67367 6.212701,-0.67367 4.266555,0 7.709739,0.97307 3.443184,0.97308 5.838443,2.84437 2.47011,1.79645 3.817443,4.34141 1.347333,2.54496 1.347333,5.68874 0,2.47011 -0.82337,4.49111 -0.82337,2.021 -2.245555,3.51803 -1.347333,1.49704 -3.218629,2.47011 -1.796444,0.89823 -3.892295,1.27248 v 0.44912 q 4.790517,0.82337 7.934294,4.04199 3.218629,3.14378 3.218629,8.53311 0,3.51804 -1.497037,6.36241 -1.422185,2.84437 -4.116851,4.86537 -2.619814,2.021 -6.437257,3.14377 -3.742591,1.04793 -8.383405,1.04793 -3.967147,0 -7.036072,-0.82337 -2.994073,-0.82337 -5.31448,-2.1707 -2.3204065,-1.42219 -4.0419985,-3.21863 -1.6467403,-1.8713 -2.9192214,-3.81745 l 8.3085529,-6.43725 q 1.721592,3.21863 4.266554,5.31448 2.619814,2.021 6.961221,2.021 4.041998,0 6.212701,-1.8713 2.170704,-1.87129 2.170704,-5.16478 v -0.52396 q 0,-3.21863 -2.470111,-4.79052 -2.47011,-1.64674 -6.886368,-1.64674 h -4.865369 v -9.35647 z" />
    <path
       inkscape:connector-curvature="0"
       id="path1364"
       style="font-style:normal;font-variant:normal;font-weight:bold;font-stretch:normal;font-size:74.85182953px;line-height:1.25;font-family:'IBM Plex Mono';-inkscape-font-specification:'IBM Plex Mono Bold';letter-spacing:0px;word-spacing:0px;fill:#9aa0a8;fill-opacity:1;stroke:none;stroke-width:1.87129581"
       d="m -169.76317,103.46215 v -9.057071 h 14.07215 V 59.374423 h -0.67367 l -10.62896,13.92244 -7.18578,-5.613887 12.50026,-16.467402 h 17.21592 v 43.189505 h 11.07807 v 9.057071 z" />
    <path
       inkscape:connector-curvature="0"
       id="path1366"
       style="font-style:normal;font-variant:normal;font-weight:bold;font-stretch:normal;font-size:74.85182953px;line-height:1.25;font-family:'IBM Plex Mono';-inkscape-font-specification:'IBM Plex Mono Bold';letter-spacing:0px;word-spacing:0px;fill:#9aa0a8;fill-opacity:1;stroke:none;stroke-width:1.87129581"
       d="m -126.15379,51.215574 h 18.3387 q 7.70974,0 11.751735,3.742591 4.116851,3.742592 4.116851,10.179849 0,4.49111 -2.245555,7.185775 -2.170703,2.619815 -6.287551,3.817444 v 0.449111 q 4.865366,1.197629 7.48518,4.191702 2.694666,2.994073 2.694666,8.308553 0,6.586961 -4.191703,10.479256 -4.11685,3.892295 -11.602033,3.892295 h -20.06029 z m 16.61711,44.387134 q 4.04199,0 5.91329,-1.347332 1.8713,-1.347333 1.8713,-4.940221 v -2.170703 q 0,-3.592888 -1.8713,-4.940221 -1.8713,-1.347333 -5.91329,-1.347333 h -5.68874 v 14.74581 z m -1.42219,-22.230993 q 3.96715,0 5.76359,-1.272481 1.79645,-1.347333 1.79645,-4.790517 v -2.245555 q 0,-3.443184 -1.79645,-4.715665 -1.79644,-1.272481 -5.76359,-1.272481 h -4.26655 v 14.296699 z" />
    <path
       inkscape:connector-curvature="0"
       id="path1368"
       style="font-style:normal;font-variant:normal;font-weight:bold;font-stretch:normal;font-size:74.85182953px;line-height:1.25;font-family:'IBM Plex Mono';-inkscape-font-specification:'IBM Plex Mono Bold';letter-spacing:0px;word-spacing:0px;fill:#ffffff;fill-opacity:1;stroke:none;stroke-width:1.87129581"
       d="M -16.778901,103.46215 V 93.432005 h -23.503475 v -9.581034 l 20.808809,-32.635397 h 13.4733294 v 33.533619 h 6.73666466 v 8.682812 H -6.0002376 V 103.46215 Z M -31.225304,84.749193 h 14.446403 V 62.817607 h -0.673667 z" />
    <path
       inkscape:connector-curvature="0"
       id="path1370"
       style="font-style:normal;font-variant:normal;font-weight:bold;font-stretch:normal;font-size:74.85182953px;line-height:1.25;font-family:'IBM Plex Mono';-inkscape-font-specification:'IBM Plex Mono Bold';letter-spacing:0px;word-spacing:0px;fill:#ffffff;fill-opacity:1;stroke:none;stroke-width:1.87129581"
       d="m 25.483151,104.36037 q -4.715665,0 -8.458256,-1.42218 -3.66774,-1.49704 -6.212702,-4.191705 -2.5449624,-2.769517 -3.8922954,-6.586961 -1.3473329,-3.817443 -1.3473329,-8.533108 0,-5.464184 1.7215921,-10.329553 1.7215921,-4.94022 4.4162582,-9.057071 2.769517,-4.191703 6.13785,-7.485183 3.443184,-3.293481 6.811516,-5.539035 H 40.15411 q -4.865369,3.368332 -8.757664,6.512109 -3.817443,3.068925 -6.736665,6.212702 -2.844369,3.068925 -4.715665,6.362405 -1.796444,3.293481 -2.619814,7.110924 l 0.673666,0.224555 q 0.673667,-1.497036 1.646741,-2.919221 0.973073,-1.422185 2.395258,-2.47011 1.422185,-1.122778 3.293481,-1.796444 1.946147,-0.673667 4.491109,-0.673667 3.293481,0 6.137851,1.19763 2.844369,1.122777 4.865368,3.29348 2.095852,2.095851 3.293481,5.089924 1.197629,2.994074 1.197629,6.736665 0,3.967147 -1.422185,7.335479 -1.422184,3.368333 -4.041998,5.838443 -2.544963,2.395262 -6.212702,3.742592 -3.66774,1.34733 -8.15885,1.34733 z M 25.4083,95.602708 q 4.041998,0 6.13785,-2.095851 2.095851,-2.170703 2.095851,-6.062998 v -1.047926 q 0,-3.892295 -2.170703,-5.913294 -2.095851,-2.095851 -6.062998,-2.095851 -3.817444,0 -5.988147,2.095851 -2.170703,2.020999 -2.170703,5.913294 v 1.047926 q 0,3.892295 2.021,6.062998 2.095851,2.095851 6.13785,2.095851 z" />
    <path
       inkscape:connector-curvature="0"
       id="path1359"
       style="font-style:normal;font-variant:normal;font-weight:bold;font-stretch:normal;font-size:74.85182953px;line-height:1.25;font-family:'IBM Plex Mono';-inkscape-font-specification:'IBM Plex Mono Bold';letter-spacing:0px;word-spacing:0px;fill:#9aa0a8;fill-opacity:1;stroke:none;stroke-width:1.87129581"
       d="m -153.74488,234.29002 q -10.47925,0 -15.49432,-7.11092 -4.94022,-7.11093 -4.94022,-19.91059 0,-12.79966 4.94022,-19.91059 5.01507,-7.11092 15.49432,-7.11092 10.47926,0 15.41948,7.11092 5.01507,7.11093 5.01507,19.91059 0,12.79966 -5.01507,19.91059 -4.94022,7.11092 -15.41948,7.11092 z m 0,-8.83251 q 5.01508,0 6.96122,-3.51804 2.021,-3.51804 2.021,-9.80559 v -9.73074 q 0,-6.28755 -2.021,-9.80559 -1.94614,-3.51803 -6.96122,-3.51803 -5.01507,0 -7.03607,3.51803 -1.94614,3.51804 -1.94614,9.80559 v 9.73074 q 0,6.28755 1.94614,9.80559 2.021,3.51804 7.03607,3.51804 z m 0,-13.77274 q -2.61981,0 -3.66773,-1.04793 -0.97308,-1.04792 -0.97308,-2.54496 v -1.64674 q 0,-1.49704 0.97308,-2.54496 1.04792,-1.04793 3.66773,-1.04793 2.61982,0 3.59289,1.04793 1.04793,1.04792 1.04793,2.54496 v 1.64674 q 0,1.49704 -1.04793,2.54496 -0.97307,1.04793 -3.59289,1.04793 z" />
    <path
       inkscape:connector-curvature="0"
       id="path1361"
       style="font-style:normal;font-variant:normal;font-weight:bold;font-stretch:normal;font-size:74.85182953px;line-height:1.25;font-family:'IBM Plex Mono';-inkscape-font-specification:'IBM Plex Mono Bold';letter-spacing:0px;word-spacing:0px;fill:#9aa0a8;fill-opacity:1;stroke:none;stroke-width:1.87129581"
       d="m -125.55497,181.14522 h 18.33869 q 7.709742,0 11.751741,3.74259 4.116851,3.7426 4.116851,10.17985 0,4.49111 -2.245555,7.18578 -2.170703,2.61981 -6.287554,3.81744 v 0.44911 q 4.865369,1.19763 7.485183,4.19171 2.694666,2.99407 2.694666,8.30855 0,6.58696 -4.191703,10.47925 -4.11685,3.8923 -11.602029,3.8923 h -20.06029 z m 16.6171,44.38714 q 4.042,0 5.9133,-1.34734 1.87129,-1.34733 1.87129,-4.94022 v -2.1707 q 0,-3.59289 -1.87129,-4.94022 -1.8713,-1.34733 -5.9133,-1.34733 h -5.68874 v 14.74581 z m -1.42218,-22.231 q 3.96714,0 5.76359,-1.27248 1.79644,-1.34733 1.79644,-4.79051 v -2.24556 q 0,-3.44318 -1.79644,-4.71566 -1.79645,-1.27248 -5.76359,-1.27248 h -4.26656 v 14.29669 z" />
    <text
       xml:space="preserve"
       style="font-style:normal;font-variant:normal;font-weight:normal;font-stretch:normal;font-size:74.78888702px;line-height:7.0711956px;font-family:'IBM Plex Sans Condensed';-inkscape-font-specification:'IBM Plex Sans Condensed, ';font-variant-ligatures:normal;font-variant-caps:normal;font-variant-numeric:normal;font-feature-settings:normal;text-align:center;letter-spacing:0px;word-spacing:0px;writing-mode:lr-tb;text-anchor:middle;fill:#a9d8b8;fill-opacity:1;stroke:none;stroke-width:0.35355979px;stroke-linecap:butt;stroke-linejoin:miter;stroke-opacity:1"
       x="744.55157"
       y="-676.11572"
       id="text1007"><tspan
         sodipodi:role="line"
         id="tspan1005"
         x="744.55157"
         y="-676.11572"
         style="font-style:normal;font-variant:normal;font-weight:normal;font-stretch:normal;font-size:74.78888702px;font-family:'IBM Plex Sans Condensed';-inkscape-font-specification:'IBM Plex Sans Condensed, ';text-align:start;text-anchor:start;fill:#a9d8b8;fill-opacity:1;stroke-width:0.35355979px">clear screen</tspan></text>
    <text
       id="text1021"
       y="-546.1861"
       x="380.69028"
       style="font-style:normal;font-variant:normal;font-weight:normal;font-stretch:normal;font-size:74.78888702px;line-height:7.0711956px;font-family:'IBM Plex Sans Condensed';-inkscape-font-specification:'IBM Plex Sans Condensed, ';font-variant-ligatures:normal;font-variant-caps:normal;font-variant-numeric:normal;font-feature-settings:normal;text-align:center;letter-spacing:0px;word-spacing:0px;writing-mode:lr-tb;text-anchor:middle;fill:#a9d8b8;fill-opacity:1;stroke:none;stroke-width:0.35355979px;stroke-linecap:butt;stroke-linejoin:miter;stroke-opacity:1"
       xml:space="preserve"><tspan
         style="font-style:normal;font-variant:normal;font-weight:normal;font-stretch:normal;font-size:74.78888702px;font-family:'IBM Plex Sans Condensed';-inkscape-font-specification:'IBM Plex Sans Condensed, ';text-align:start;text-anchor:start;fill:#a9d8b8;fill-opacity:1;stroke-width:0.35355979px"
         y="-546.1861"
         x="380.69028"
         id="tspan1019"
         sodipodi:role="line">go to row 12, column 12</tspan></text>
    <text
       xml:space="preserve"
       style="font-style:normal;font-variant:normal;font-weight:normal;font-stretch:normal;font-size:74.78888702px;line-height:7.0711956px;font-family:'IBM Plex Sans Condensed';-inkscape-font-specification:'IBM Plex Sans Condensed, ';font-variant-ligatures:normal;font-variant-caps:normal;font-variant-numeric:normal;font-feature-settings:normal;text-align:center;letter-spacing:0px;word-spacing:0px;writing-mode:lr-tb;text-anchor:middle;fill:#a9d8b8;fill-opacity:1;stroke:none;stroke-width:0.35355979px;stroke-linecap:butt;stroke-linejoin:miter;stroke-opacity:1"
       x="118.04362"
       y="-416.25644"
       id="text1025"><tspan
         sodipodi:role="line"
         id="tspan1023"
         x="118.04362"
         y="-416.25644"
         style="font-style:normal;font-variant:normal;font-weight:normal;font-stretch:normal;font-size:74.78888702px;font-family:'IBM Plex Sans Condensed';-inkscape-font-specification:'IBM Plex Sans Condensed, ';text-align:start;text-anchor:start;fill:#a9d8b8;fill-opacity:1;stroke-width:0.35355979px">set double width + double height</tspan></text>
    <text
       id="text1029"
       y="-286.32678"
       x="209.88429"
       style="font-style:normal;font-variant:normal;font-weight:normal;font-stretch:normal;font-size:74.78888702px;line-height:7.0711956px;font-family:'IBM Plex Sans Condensed';-inkscape-font-specification:'IBM Plex Sans Condensed, ';font-variant-ligatures:normal;font-variant-caps:normal;font-variant-numeric:normal;font-feature-settings:normal;text-align:center;letter-spacing:0px;word-spacing:0px;writing-mode:lr-tb;text-anchor:middle;fill:#a9d8b8;fill-opacity:1;stroke:none;stroke-width:0.35355979px;stroke-linecap:butt;stroke-linejoin:miter;stroke-opacity:1"
       xml:space="preserve"><tspan
         style="font-style:normal;font-variant:normal;font-weight:normal;font-stretch:normal;font-size:74.78888702px;font-family:'IBM Plex Sans Condensed';-inkscape-font-specification:'IBM Plex Sans Condensed, ';text-align:start;text-anchor:start;fill:#a9d8b8;fill-opacity:1;stroke-width:0.35355979px"
         y="-286.32678"
         x="209.88429"
         id="tspan1027"
         sodipodi:role="line">set foreground color to yellow</tspan></text>
    <text
       xml:space="preserve"
       style="font-style:normal;font-variant:normal;font-weight:normal;font-stretch:normal;font-size:74.78888702px;line-height:7.0711956px;font-family:'IBM Plex Sans Condensed';-inkscape-font-specification:'IBM Plex Sans Condensed, ';font-variant-ligatures:normal;font-variant-caps:normal;font-variant-numeric:normal;font-feature-settings:normal;text-align:center;letter-spacing:0px;word-spacing:0px;writing-mode:lr-tb;text-anchor:middle;fill:#a7c4b5;fill-opacity:1;stroke:none;stroke-width:0.35355979px;stroke-linecap:butt;stroke-linejoin:miter;stroke-opacity:1"
       x="832.28363"
       y="-156.39714"
       id="text1033"><tspan
         sodipodi:role="line"
         id="tspan1031"
         x="832.28363"
         y="-156.39714"
         style="font-style:normal;font-variant:normal;font-weight:normal;font-stretch:normal;font-size:74.78888702px;font-family:'IBM Plex Sans Condensed';-inkscape-font-specification:'IBM Plex Sans Condensed, ';text-align:start;text-anchor:start;fill:#a7c4b5;fill-opacity:1;stroke-width:0.35355979px">FOSDEM</tspan></text>
    <text
       id="text1037"
       y="-26.467495"
       x="113.51534"
       style="font-style:normal;font-variant:normal;font-weight:normal;font-stretch:normal;font-size:74.78888702px;line-height:7.0711956px;font-family:'IBM Plex Sans Condensed';-inkscape-font-specification:'IBM Plex Sans Condensed, ';font-variant-ligatures:normal;font-variant-caps:normal;font-variant-numeric:normal;font-feature-settings:normal;text-align:center;letter-spacing:0px;word-spacing:0px;writing-mode:lr-tb;text-anchor:middle;fill:#a9d8b8;fill-opacity:1;stroke:none;stroke-width:0.35355979px;stroke-linecap:butt;stroke-linejoin:miter;stroke-opacity:1"
       xml:space="preserve"><tspan
         style="font-style:normal;font-variant:normal;font-weight:normal;font-stretch:normal;font-size:74.78888702px;font-family:'IBM Plex Sans Condensed';-inkscape-font-specification:'IBM Plex Sans Condensed, ';text-align:start;text-anchor:start;fill:#a9d8b8;fill-opacity:1;stroke-width:0.35355979px"
         y="-26.467495"
         x="113.51534"
         id="tspan1035"
         sodipodi:role="line">set double width + normal height</tspan></text>
    <text
       xml:space="preserve"
       style="font-style:normal;font-variant:normal;font-weight:normal;font-stretch:normal;font-size:74.78888702px;line-height:7.0711956px;font-family:'IBM Plex Sans Condensed';-inkscape-font-specification:'IBM Plex Sans Condensed, ';font-variant-ligatures:normal;font-variant-caps:normal;font-variant-numeric:normal;font-feature-settings:normal;text-align:center;letter-spacing:0px;word-spacing:0px;writing-mode:lr-tb;text-anchor:middle;fill:#a9d8b8;fill-opacity:1;stroke:none;stroke-width:0.35355979px;stroke-linecap:butt;stroke-linejoin:miter;stroke-opacity:1"
       x="268.064"
       y="103.46215"
       id="text1041"><tspan
         sodipodi:role="line"
         id="tspan1039"
         x="268.064"
         y="103.46215"
         style="font-style:normal;font-variant:normal;font-weight:normal;font-stretch:normal;font-size:74.78888702px;font-family:'IBM Plex Sans Condensed';-inkscape-font-specification:'IBM Plex Sans Condensed, ';text-align:start;text-anchor:start;fill:#a9d8b8;fill-opacity:1;stroke-width:0.35355979px">set foreground color to cyan</tspan></text>
    <text
       id="text1045"
       y="233.3918"
       x="211.92935"
       style="font-style:normal;font-variant:normal;font-weight:normal;font-stretch:normal;font-size:74.78888702px;line-height:7.0711956px;font-family:'IBM Plex Sans Condensed';-inkscape-font-specification:'IBM Plex Sans Condensed, ';font-variant-ligatures:normal;font-variant-caps:normal;font-variant-numeric:normal;font-feature-settings:normal;text-align:center;letter-spacing:0px;word-spacing:0px;writing-mode:lr-tb;text-anchor:middle;fill:#a9d8b8;fill-opacity:1;stroke:none;stroke-width:0.35355979px;stroke-linecap:butt;stroke-linejoin:miter;stroke-opacity:1"
       xml:space="preserve"><tspan
         style="font-style:normal;font-variant:normal;font-weight:normal;font-stretch:normal;font-size:74.78888702px;font-family:'IBM Plex Sans Condensed';-inkscape-font-specification:'IBM Plex Sans Condensed, ';text-align:start;text-anchor:start;fill:#a9d8b8;fill-opacity:1;stroke-width:0.35355979px"
         y="233.3918"
         x="211.92935"
         id="tspan1043"
         sodipodi:role="line">move cursor to preceding row</tspan></text>
    <text
       xml:space="preserve"
       style="font-style:normal;font-variant:normal;font-weight:normal;font-stretch:normal;font-size:74.78888702px;line-height:7.0711956px;font-family:'IBM Plex Sans Condensed';-inkscape-font-specification:'IBM Plex Sans Condensed, ';font-variant-ligatures:normal;font-variant-caps:normal;font-variant-numeric:normal;font-feature-settings:normal;text-align:center;letter-spacing:0px;word-spacing:0px;writing-mode:lr-tb;text-anchor:middle;fill:#a7c4b5;fill-opacity:1;stroke:none;stroke-width:0.35355979px;stroke-linecap:butt;stroke-linejoin:miter;stroke-opacity:1"
       x="1032.2318"
       y="363.32144"
       id="text1049"><tspan
         sodipodi:role="line"
         id="tspan1047"
         x="1032.2318"
         y="363.32144"
         style="font-style:normal;font-variant:normal;font-weight:normal;font-stretch:normal;font-size:74.78888702px;font-family:'IBM Plex Sans Condensed';-inkscape-font-specification:'IBM Plex Sans Condensed, ';text-align:start;text-anchor:start;fill:#a7c4b5;fill-opacity:1;stroke-width:0.35355979px">20</tspan></text>
    <rect
       style="opacity:1;vector-effect:none;fill:none;fill-opacity:1;stroke:#beffc7;stroke-width:3;stroke-linecap:butt;stroke-linejoin:miter;stroke-miterlimit:4;stroke-dasharray:none;stroke-dashoffset:0;stroke-opacity:1"
       id="rect1500"
       width="1399.693"
       height="1093.5101"
       x="-1630.4554"
       y="-729.16443" />
  </g>
</svg>
