<?xml version="1.0" encoding="UTF-8" standalone="no"?>
<!-- Created with Inkscape (http://www.inkscape.org/) -->

<svg
   xmlns:dc="http://purl.org/dc/elements/1.1/"
   xmlns:cc="http://creativecommons.org/ns#"
   xmlns:rdf="http://www.w3.org/1999/02/22-rdf-syntax-ns#"
   xmlns:svg="http://www.w3.org/2000/svg"
   xmlns="http://www.w3.org/2000/svg"
   xmlns:sodipodi="http://sodipodi.sourceforge.net/DTD/sodipodi-0.dtd"
   xmlns:inkscape="http://www.inkscape.org/namespaces/inkscape"
   width="849.58508mm"
   height="1058.6146mm"
   viewBox="0 0 849.58511 1058.6146"
   version="1.1"
   id="svg8"
   inkscape:version="0.92.4 5da689c313, 2019-01-14"
   sodipodi:docname="font.svg">
  <defs
     id="defs2" />
  <sodipodi:namedview
     id="base"
     pagecolor="#252525"
     bordercolor="#666666"
     borderopacity="1.0"
     inkscape:pageopacity="1"
     inkscape:pageshadow="2"
     inkscape:zoom="0.12374369"
     inkscape:cx="-1725.8278"
     inkscape:cy="3374.2193"
     inkscape:document-units="mm"
     inkscape:current-layer="layer1"
     showgrid="false"
     showguides="true"
     inkscape:guide-bbox="true"
     fit-margin-top="10"
     fit-margin-left="10"
     fit-margin-right="10"
     fit-margin-bottom="10"
     inkscape:window-width="3840"
     inkscape:window-height="2063"
     inkscape:window-x="0"
     inkscape:window-y="27"
     inkscape:window-maximized="1" />
  <metadata
     id="metadata5">
    <rdf:RDF>
      <cc:Work
         rdf:about="">
        <dc:format>image/svg+xml</dc:format>
        <dc:type
           rdf:resource="http://purl.org/dc/dcmitype/StillImage" />
        <dc:title></dc:title>
      </cc:Work>
    </rdf:RDF>
  </metadata>
  <g
     inkscape:label="Calque 1"
     inkscape:groupmode="layer"
     id="layer1"
     transform="translate(-244.62145,716.37905)">
    <rect
       style="display:inline;opacity:1;vector-effect:none;fill:#9aa0a8;fill-opacity:1;stroke:none;stroke-width:4.41416883;stroke-linecap:butt;stroke-linejoin:miter;stroke-miterlimit:4;stroke-dasharray:none;stroke-dashoffset:0;stroke-opacity:1"
       id="rect820"
       width="96.741371"
       height="96.741371"
       x="410.15948"
       y="411.77805" />
    <rect
       y="411.77805"
       x="521.11151"
       height="96.741371"
       width="96.741371"
       id="rect822"
       style="display:inline;opacity:1;vector-effect:none;fill:#a7c4b5;fill-opacity:1;stroke:none;stroke-width:4.41416883;stroke-linecap:butt;stroke-linejoin:miter;stroke-miterlimit:4;stroke-dasharray:none;stroke-dashoffset:0;stroke-opacity:1" />
    <rect
       style="display:inline;opacity:1;vector-effect:none;fill:#a9d8b8;fill-opacity:1;stroke:none;stroke-width:4.41416883;stroke-linecap:butt;stroke-linejoin:miter;stroke-miterlimit:4;stroke-dasharray:none;stroke-dashoffset:0;stroke-opacity:1"
       id="rect824"
       width="96.741371"
       height="96.741371"
       x="632.06354"
       y="411.77805" />
    <rect
       y="411.77805"
       x="743.0155"
       height="96.741371"
       width="96.741371"
       id="rect826"
       style="display:inline;opacity:1;vector-effect:none;fill:#beffc7;fill-opacity:1;stroke:none;stroke-width:4.41416883;stroke-linecap:butt;stroke-linejoin:miter;stroke-miterlimit:4;stroke-dasharray:none;stroke-dashoffset:0;stroke-opacity:1" />
    <rect
       style="display:inline;opacity:1;vector-effect:none;fill:#72705b;fill-opacity:1;stroke:none;stroke-width:4.41416883;stroke-linecap:butt;stroke-linejoin:miter;stroke-miterlimit:4;stroke-dasharray:none;stroke-dashoffset:0;stroke-opacity:1"
       id="rect828"
       width="96.741371"
       height="96.741371"
       x="853.96722"
       y="411.77805" />
    <rect
       y="411.77805"
       x="299.20758"
       height="96.741371"
       width="96.741371"
       id="rect830"
       style="display:inline;opacity:1;vector-effect:none;fill:#ffffff;fill-opacity:1;stroke:none;stroke-width:4.41416883;stroke-linecap:butt;stroke-linejoin:miter;stroke-miterlimit:4;stroke-dasharray:none;stroke-dashoffset:0;stroke-opacity:1" />
    <rect
       y="411.77805"
       x="964.91895"
       height="96.741371"
       width="96.741371"
       id="rect832"
       style="display:inline;opacity:1;vector-effect:none;fill:#000000;fill-opacity:1;stroke:none;stroke-width:4.41416883;stroke-linecap:butt;stroke-linejoin:miter;stroke-miterlimit:4;stroke-dasharray:none;stroke-dashoffset:0;stroke-opacity:1" />
    <path
       style="fill:#000000;stroke-width:0.26458332"
       d=""
       id="path938"
       inkscape:connector-curvature="0" />
    <path
       style="fill:#000000;stroke-width:0.26458332"
       d=""
       id="path936"
       inkscape:connector-curvature="0" />
    <g
       id="g970"
       transform="matrix(2.4688507,0,0,2.4688507,1360.5293,541.35928)">
      <path
         inkscape:connector-curvature="0"
         id="path953"
         d="m -405.6111,-86.02779 v -1.32291 h 1.3229 1.323 v -1.32292 -1.32292 h 1.3229 1.3229 v -2.64583 -2.64583 h 1.3229 1.3229 v -1.32292 -1.32292 h 1.3229 1.323 v -1.32291 -1.32292 h 1.3229 1.3229 v -1.32292 -1.32291 h 1.3229 1.3229 v -2.64584 -2.64583 h 1.3229 1.323 v -1.32292 -1.32291 h 1.3229 1.3229 v 1.32291 1.32292 h -1.3229 -1.3229 v 2.64583 2.64584 h -1.323 -1.3229 v 1.32291 1.32292 h -1.3229 -1.3229 v 1.32292 1.32291 h -1.3229 -1.3229 v 1.32292 1.32292 h -1.323 -1.3229 v 2.64583 2.64583 h -1.3229 -1.3229 v 1.32292 1.32292 h -1.3229 -1.3229 v 1.32291 1.32292 h -1.323 -1.3229 z m 63.49996,0 v -1.32291 h 10.5834 10.5833 v 1.32291 1.32292 h -10.5833 -10.5834 z m 42.3334,-11.90625 v -13.22916 h 10.5833 10.5833 v 13.22916 13.22917 h -10.5833 -10.5833 z m -140.22916,9.26042 v -1.32292 h -1.3229 -1.3229 v -1.32291 -1.32292 h -1.323 -1.3229 v -1.32292 -1.32291 h 1.3229 1.323 v 1.32291 1.32292 h 1.3229 1.3229 v -9.26042 -9.26041 h 1.3229 1.3229 v 9.26041 9.26042 h 1.3229 1.323 v -1.32292 -1.32291 h 1.3229 1.3229 v 1.32291 1.32292 h -1.3229 -1.3229 v 1.32292 1.32291 h -1.323 -1.3229 v 1.32292 1.32292 h -1.3229 -1.3229 z m 18.5208,-2.64583 v -1.32292 h -1.3229 -1.3229 v -2.64583 -2.64584 h 1.3229 1.3229 v -1.32291 -1.32292 h 3.9688 3.9687 v 1.32292 1.32291 h 1.3229 1.323 v 2.64584 2.64583 h -1.323 -1.3229 v 1.32292 1.32291 h -3.9687 -3.9688 z m 7.9375,-3.96875 v -2.64584 h -3.9687 -3.9688 v 2.64584 2.64583 h 3.9688 3.9687 z m 37.04166,3.96875 v -1.32292 h 1.3229 1.3229 v 1.32292 1.32291 h -1.3229 -1.3229 z m 18.5208,0 v -1.32292 h -1.3229 -1.3229 v -6.61458 -6.61459 h 1.3229 1.3229 v -1.32291 -1.32292 h 3.9688 3.9687 v 1.32292 1.32291 h 1.3229 1.323 v 6.61459 6.61458 h -1.323 -1.3229 v 1.32292 1.32291 h -3.9687 -3.9688 z m 7.9375,-7.9375 v -6.61459 h -3.9687 -3.9688 v 6.61459 6.61458 h 3.9688 3.9687 z m 34.3959,7.9375 v -1.32292 h -1.323 -1.3229 v -3.96875 -3.96875 h 1.3229 1.323 v -1.32292 -1.32291 h 3.9687 3.9688 v 1.32291 1.32292 h 1.3229 1.3229 v 3.96875 3.96875 h -1.3229 -1.3229 v 1.32292 1.32291 h -3.9688 -3.9687 z m 7.9375,-5.29167 v -3.96875 h -3.9688 -3.9687 v 3.96875 3.96875 h 3.9687 3.9688 z m -68.7917,0 v -1.32292 h 1.3229 1.3229 v -1.32291 -1.32292 h 1.3229 1.323 v -2.64583 -2.64584 h -3.9688 -3.96866 v 1.32292 1.32292 h -1.323 -1.3229 v -1.32292 -1.32292 h 1.3229 1.323 v -1.32291 -1.32292 h 3.96866 3.9688 v 1.32292 1.32291 h 1.3229 1.3229 v 2.64584 2.64583 h -1.3229 -1.3229 v 1.32292 1.32291 h -1.323 -1.3229 v 1.32292 1.32292 h -1.3229 -1.3229 z m -44.97916,-7.9375 v -1.32292 h 1.3229 1.323 v -1.32291 -1.32292 h 1.3229 1.3229 v 1.32292 1.32291 h 1.3229 1.3229 v 1.32292 1.32292 h -1.3229 -1.3229 v -1.32292 -1.32292 h -1.3229 -1.3229 v 1.32292 1.32292 h -1.323 -1.3229 z m 87.31246,-15.875 v -9.26042 h -1.3229 -1.3229 v 1.32292 1.32292 h -1.3229 -1.3229 v -1.32292 -1.32292 h 1.3229 1.3229 v -1.32291 -1.32292 h 1.3229 1.3229 v -1.32292 -1.32291 h 1.3229 1.323 v 1.32291 1.32292 h 1.3229 1.3229 v 1.32292 1.32291 h 1.3229 1.3229 v 1.32292 1.32292 h -1.3229 -1.3229 v -1.32292 -1.32292 h -1.3229 -1.3229 v 9.26042 9.26042 h -1.323 -1.3229 z m -79.37496,5.29167 v -1.32292 h -3.9687 -3.9688 v -1.32292 -1.32291 h 1.3229 1.323 v -1.32292 -1.32292 h 1.3229 1.3229 v -1.32291 -1.32292 h 1.3229 1.3229 v -1.32292 -1.32291 h 1.3229 1.323 v 3.96875 3.96875 h 1.3229 1.3229 v 1.32291 1.32292 h -1.3229 -1.3229 v 1.32292 1.32291 h -1.323 -1.3229 z m 0,-5.29167 v -1.32292 h -1.3229 -1.3229 v 1.32292 1.32292 h 1.3229 1.3229 z m 13.2292,2.64583 v -1.32291 h 1.3229 1.3229 v 1.32291 1.32292 h -1.3229 -1.3229 z m 18.5208,0 v -1.32291 h 1.3229 1.323 v -1.32292 -1.32292 h 1.3229 1.32286 v -1.32291 -1.32292 h 1.3229 1.3229 v -1.32292 -1.32291 h -1.3229 -1.3229 v -1.32292 -1.32292 h -1.32286 -1.3229 v -1.32291 -1.32292 h -1.323 -1.3229 v -1.32292 -1.32291 h 1.3229 1.323 v 1.32291 1.32292 h 1.3229 1.32286 v 1.32292 1.32291 h 1.3229 1.3229 v 1.32292 1.32292 h 1.3229 1.323 v 1.32291 1.32292 h -1.323 -1.3229 v 1.32292 1.32291 h -1.3229 -1.3229 v 1.32292 1.32292 h -1.32286 -1.3229 v 1.32291 1.32292 h -1.323 -1.3229 z m 21.16666,-7.9375 v -9.26041 h 1.3229 1.3229 v 2.64583 2.64583 h 1.3229 1.323 v 1.32292 1.32292 h 1.3229 1.3229 v 1.32291 1.32292 h 1.3229 1.3229 v -5.29167 -5.29166 h 1.3229 1.323 v 9.26041 9.26042 h -1.323 -1.3229 v -2.64583 -2.64584 h -1.3229 -1.3229 v -1.32291 -1.32292 h -1.3229 -1.3229 v -1.32292 -1.32291 h -1.323 -1.3229 v 5.29166 5.29167 h -1.3229 -1.3229 z m 42.3333,2.64584 v -6.61459 h 1.3229 1.323 v 1.32292 1.32292 h 1.3229 1.3229 v -1.32292 -1.32292 h 2.6458 2.6459 v 1.32292 1.32292 h 1.3229 1.3229 v 5.29166 5.29167 h -1.3229 -1.3229 v -5.29167 -5.29166 h -2.6459 -2.6458 v 1.32291 1.32292 h -1.3229 -1.3229 v 3.96875 3.96875 h -1.323 -1.3229 z m -121.70826,2.64583 v -1.32292 h 1.3229 1.3229 v -1.32291 -1.32292 h -5.2916 -5.2917 v -1.32292 -1.32291 h 5.2917 5.2916 v -1.32292 -1.32292 h -1.3229 -1.3229 v -1.32291 -1.32292 h 1.3229 1.3229 v 1.32292 1.32291 h 1.3229 1.323 v 1.32292 1.32292 h 1.3229 1.3229 v 1.32291 1.32292 h -1.3229 -1.3229 v 1.32292 1.32291 h -1.323 -1.3229 v 1.32292 1.32292 h -1.3229 -1.3229 z m 13.2292,-2.64583 v -1.32292 h 2.6458 2.6458 v -1.32292 -1.32291 h -1.3229 -1.3229 v -1.32292 -1.32292 h 1.3229 1.3229 v -1.32291 -1.32292 h -2.6458 -2.6458 v -1.32292 -1.32291 h 3.9687 3.9688 v 2.64583 2.64583 h -1.323 -1.3229 v 1.32292 1.32292 h 1.3229 1.323 v 1.32291 1.32292 h -1.323 -1.3229 v 1.32292 1.32291 h -2.6458 -2.6458 z m 126.99996,-13.22917 v -1.32292 h 9.2604 9.2604 v -13.22916 -13.22917 h 1.3229 1.3229 v 14.55208 14.55209 h -10.5833 -10.5833 z m -119.06246,-5.29167 v -1.32291 h 1.3229 1.3229 v -1.32292 -1.32292 h 1.3229 1.3229 v -1.32291 -1.32292 h 1.3229 1.323 v -1.32292 -1.32291 h -2.6459 -2.6458 v 1.32291 1.32292 h -1.3229 -1.3229 v -1.32292 -1.32291 h 1.3229 1.3229 v -1.32292 -1.32292 h 2.6458 2.6459 v 1.32292 1.32292 h 1.3229 1.3229 v 1.32291 1.32292 h -1.3229 -1.3229 v 1.32292 1.32291 h -1.323 -1.3229 v 1.32292 1.32292 h 2.6459 2.6458 v 1.32291 1.32292 h -5.2917 -5.2916 z m -23.8125,-2.64583 v -1.32292 h 1.3229 1.3229 v -2.64583 -2.64583 h -1.3229 -1.3229 v -1.32292 -1.32292 h 2.6458 2.6458 v 3.96875 3.96875 h 1.3229 1.323 v 1.32292 1.32292 h -3.9688 -3.9687 z m 82.02076,-7.9375 v -9.26042 h 1.3229 1.3229 v 1.32292 1.32292 h 1.3229 1.323 v 1.32291 1.32292 h 1.3229 1.3229 v -1.32292 -1.32291 h 1.3229 1.3229 v -1.32292 -1.32292 h 1.3229 1.323 v 9.26042 9.26042 h -1.323 -1.3229 v -6.61459 -6.61458 h -1.3229 -1.3229 v 1.32292 1.32291 h -1.3229 -1.3229 v -1.32291 -1.32292 h -1.323 -1.3229 v 6.61458 6.61459 h -1.3229 -1.3229 z m 23.8125,7.9375 v -1.32292 h 2.6458 2.6459 v -6.61458 -6.61458 h -2.6459 -2.6458 v -1.32292 -1.32292 h 3.9687 3.9688 v 9.26042 9.26042 h -3.9688 -3.9687 z m 18.5208,-5.29167 v -6.61458 h 2.6459 2.6458 v 1.32292 1.32291 h 1.3229 1.3229 v -1.32291 -1.32292 h 1.3229 1.323 v 1.32292 1.32291 h 1.3229 1.3229 v 5.29167 5.29167 h -1.3229 -1.3229 v -5.29167 -5.29167 h -1.323 -1.3229 v 5.29167 5.29167 h -1.3229 -1.3229 v -5.29167 -5.29167 h -1.3229 -1.3229 v 5.29167 5.29167 h -1.323 -1.3229 z m -105.83326,-2.64583 v -3.96875 h -1.3229 -1.3229 v -1.32292 -1.32291 h 1.3229 1.3229 v -1.32292 -1.32292 h 1.3229 1.3229 v 6.61459 6.61458 h -1.3229 -1.3229 z m 23.8125,2.64583 v -1.32291 h 5.2917 5.2916 v 1.32291 1.32292 h -5.2916 -5.2917 z m 18.5208,0 v -1.32291 h 6.61456 6.6146 v 1.32291 1.32292 h -6.6146 -6.61456 z m 0,-5.29166 v -1.32292 h 6.61456 6.6146 v 1.32292 1.32291 h -6.6146 -6.61456 z m -60.8541,-2.64584 v -1.32291 h 1.3229 1.3229 v -1.32292 -1.32292 h 1.3229 1.3229 v 1.32292 1.32292 h 1.3229 1.323 v 1.32291 1.32292 h -1.323 -1.3229 v -1.32292 -1.32291 h -1.3229 -1.3229 v 1.32291 1.32292 h -1.3229 -1.3229 z m 119.06246,-7.9375 v -1.32291 h -1.323 -1.3229 v -1.32292 -1.32292 h -1.3229 -1.3229 v -2.64583 -2.64583 h -1.3229 -1.3229 v -1.32292 -1.32292 h -1.323 -1.3229 v -1.32291 -1.32292 h -1.3229 -1.3229 v -1.32292 -1.32291 h -1.3229 -1.3229 v -2.64584 -2.64583 h -1.323 -1.3229 v -1.32292 -1.32291 h 1.3229 1.323 v 1.32291 1.32292 h 1.3229 1.3229 v 2.64583 2.64584 h 1.3229 1.3229 v 1.32291 1.32292 h 1.3229 1.323 v 1.32292 1.32291 h 1.3229 1.3229 v 1.32292 1.32292 h 1.3229 1.3229 v 2.64583 2.64583 h 1.3229 1.323 v 1.32292 1.32292 h 1.3229 1.3229 v 1.32291 1.32292 h -1.3229 -1.3229 z m 31.75,-11.90625 v -13.22916 h 1.3229 1.3229 v 13.22916 13.22917 h -1.3229 -1.3229 z m -121.70836,9.26042 v -1.32292 h -3.9687 -3.9688 v -1.32291 -1.32292 h 1.3229 1.323 v -1.32292 -1.32291 h 1.3229 1.3229 v -1.32292 -1.32292 h 1.3229 1.3229 v -1.32291 -1.32292 h 1.3229 1.323 v 3.96875 3.96875 h 1.3229 1.3229 v 1.32292 1.32291 h -1.3229 -1.3229 v 1.32292 1.32292 h -1.323 -1.3229 z m 0,-5.29167 v -1.32291 h -1.3229 -1.3229 v 1.32291 1.32292 h 1.3229 1.3229 z m 10.5834,5.29167 v -1.32292 h 1.3229 1.3229 v -2.64583 -2.64583 h 1.3229 1.3229 v 2.64583 2.64583 h -1.3229 -1.3229 v 1.32292 1.32292 h -1.3229 -1.3229 z m 31.74996,-2.64583 v -1.32292 h -1.323 -1.3229 v -1.32292 -1.32291 h -1.3229 -1.3229 v -1.32292 -1.32292 h -1.32286 -1.3229 v -1.32291 -1.32292 h 1.3229 1.32286 v -1.32292 -1.32291 h 1.3229 1.3229 v -1.32292 -1.32292 h 1.3229 1.323 v -1.32291 -1.32292 h 1.3229 1.3229 v 1.32292 1.32291 h -1.3229 -1.3229 v 1.32292 1.32292 h -1.323 -1.3229 v 1.32291 1.32292 h -1.3229 -1.3229 v 1.32292 1.32291 h 1.3229 1.3229 v 1.32292 1.32292 h 1.3229 1.323 v 1.32291 1.32292 h 1.3229 1.3229 v 1.32292 1.32291 h -1.3229 -1.3229 z m 10.5833,-7.9375 v -9.26042 h 1.3229 1.3229 v 7.9375 7.9375 h 5.2917 5.2917 v 1.32292 1.32291 h -6.6146 -6.6146 z m 44.9792,7.9375 v -1.32292 h 1.3229 1.3229 v -6.61458 -6.61459 h -1.3229 -1.3229 v -1.32291 -1.32292 h 2.6458 2.6458 v 7.9375 7.9375 h 1.3229 1.323 v 1.32292 1.32291 h -3.9688 -3.9687 z m -124.35416,-2.64584 v -1.32291 h -1.3229 -1.3229 v -1.32292 -1.32292 h -1.323 -1.3229 v -1.32291 -1.32292 h 1.3229 1.323 v -1.32292 -1.32291 h 1.3229 1.3229 v -1.32292 -1.32292 h 1.3229 1.3229 v 1.32292 1.32292 h -1.3229 -1.3229 v 1.32291 1.32292 h 6.6146 6.6146 v 1.32292 1.32291 h -6.6146 -6.6146 v 1.32292 1.32292 h 1.3229 1.3229 v 1.32291 1.32292 h -1.3229 -1.3229 z m 15.875,-5.29166 v -3.96875 h -1.3229 -1.3229 v -1.32292 -1.32292 h 1.3229 1.3229 v -1.32291 -1.32292 h 1.3229 1.3229 v 6.61458 6.61459 h -1.3229 -1.3229 z m 124.35416,-25.13542 v -13.22917 h 1.3229 1.3229 v 13.22917 13.22917 h -1.3229 -1.3229 z m -82.02086,9.26041 v -1.32291 h 1.3229 1.323 v -2.64584 -2.64583 h 1.3229 1.32286 v 2.64583 2.64584 h -1.32286 -1.3229 v 1.32291 1.32292 h -1.323 -1.3229 z m -60.8541,-7.9375 v -6.61458 h 1.3229 1.3229 v -1.32292 -1.32291 h 1.3229 1.3229 v -1.32292 -1.32292 h 1.3229 1.323 v 1.32292 1.32292 h 1.3229 1.3229 v 2.64583 2.64583 h -3.9688 -3.9687 v 1.32292 1.32292 h 1.3229 1.3229 v 1.32291 1.32292 h -1.3229 -1.3229 v 1.32292 1.32291 h 3.9687 3.9688 v 1.32292 1.32292 h -5.2917 -5.2916 z m 7.9375,-7.9375 v -1.32291 h -1.323 -1.3229 v 1.32291 1.32292 h 1.3229 1.323 z m 13.2291,13.22917 v -1.32292 h -1.3229 -1.3229 v -3.96875 -3.96875 h 1.3229 1.3229 v -2.64583 -2.64583 h 1.3229 1.323 v -1.32292 -1.32292 h 1.3229 1.3229 v 1.32292 1.32292 h 1.3229 1.3229 v 2.64583 2.64583 h 1.3229 1.323 v 2.64584 2.64583 h -5.2917 -5.2917 v 1.32292 1.32291 h 3.9688 3.9687 v 1.32292 1.32292 h -3.9687 -3.9688 z m 7.9375,-7.9375 v -1.32292 h -3.9687 -3.9688 v 1.32292 1.32292 h 3.9688 3.9687 z m -2.6458,-5.29167 v -1.32291 h -1.3229 -1.3229 v 1.32291 1.32292 h 1.3229 1.3229 z m 55.56246,5.29167 v -9.26042 h 1.3229 1.3229 v 3.96875 3.96875 h 1.3229 1.323 v -1.32291 -1.32292 h 1.3229 1.3229 v -1.32292 -1.32291 h 1.3229 1.3229 v -1.32292 -1.32292 h 1.3229 1.323 v 1.32292 1.32292 h -1.323 -1.3229 v 1.32291 1.32292 h -1.3229 -1.3229 v 1.32292 1.32291 h -1.3229 -1.3229 v 1.32292 1.32292 h 1.3229 1.3229 v 1.32291 1.32292 h 1.3229 1.3229 v 1.32292 1.32291 h 1.3229 1.323 v 1.32292 1.32292 h -1.323 -1.3229 v -1.32292 -1.32292 h -1.3229 -1.3229 v -1.32291 -1.32292 h -1.3229 -1.3229 v -1.32292 -1.32291 h -1.323 -1.3229 v 3.96875 3.96875 h -1.3229 -1.3229 z m 26.4583,0 v -9.26042 h 3.9688 3.9687 v 1.32292 1.32292 h -2.6458 -2.6458 v 6.61458 6.61458 h 2.6458 2.6458 v 1.32292 1.32292 h -3.9687 -3.9688 z m 18.5209,0 v -9.26042 h 1.3229 1.3229 v 5.29167 5.29167 h 1.3229 1.3229 v -1.32292 -1.32292 h 1.3229 1.323 v -1.32291 -1.32292 h 1.3229 1.3229 v 1.32292 1.32291 h -1.3229 -1.3229 v 1.32292 1.32292 h -1.323 -1.3229 v 1.32291 1.32292 h 1.3229 1.323 v 1.32292 1.32291 h 1.3229 1.3229 v 1.32292 1.32292 h -1.3229 -1.3229 v -1.32292 -1.32292 h -1.323 -1.3229 v -1.32291 -1.32292 h -1.3229 -1.3229 v 2.64583 2.64584 h -1.3229 -1.3229 z m -82.02086,3.96875 v -2.64583 h -2.6458 -2.6458 v -1.32292 -1.32292 h 2.6458 2.6458 v -2.64583 -2.64583 h 1.3229 1.323 v 2.64583 2.64583 h 2.6458 2.6458 v 1.32292 1.32292 h -2.6458 -2.6458 v 2.64583 2.64583 h -1.323 -1.3229 z m 18.5209,-6.61458 v -1.32292 h 1.3229 1.32286 v 1.32292 1.32291 h -1.32286 -1.3229 z m 63.49996,-10.58334 v -1.32291 h -1.323 -1.3229 v -1.32292 -1.32292 h 1.3229 1.323 v 1.32292 1.32292 h 2.6458 2.6458 v -6.61459 -6.61458 h -1.3229 -1.3229 v -1.32292 -1.32291 h 2.6458 2.6459 v 7.9375 7.9375 h -1.323 -1.3229 v 1.32291 1.32292 h -2.6458 -2.6458 z m -126.99996,-5.29166 v -1.32292 h -1.323 -1.3229 v -6.61458 -6.61459 h 1.3229 1.323 v -1.32291 -1.32292 h 5.2916 5.2917 v 1.32292 1.32291 h -2.6458 -2.6459 v 2.64584 2.64583 h 1.3229 1.323 v 1.32292 1.32291 h -1.323 -1.3229 v 2.64584 2.64583 h 2.6459 2.6458 v 1.32292 1.32291 h -5.2917 -5.2916 z m 2.6458,-7.9375 v -6.61459 h -1.3229 -1.3229 v 6.61459 6.61458 h 1.3229 1.3229 z m 18.5208,7.9375 v -1.32292 h -1.3229 -1.3229 v -3.96875 -3.96875 h 1.3229 1.3229 v -1.32292 -1.32291 h 5.2917 5.2917 v 1.32291 1.32292 h 1.3229 1.3229 v 2.64583 2.64584 h -3.9688 -3.9687 v 1.32291 1.32292 h 3.9687 3.9688 v 1.32292 1.32291 h -6.6146 -6.6146 z m 2.6459,-5.29167 v -3.96875 h -1.323 -1.3229 v 3.96875 3.96875 h 1.3229 1.323 z m 7.9375,-2.64583 v -1.32292 h -2.6459 -2.6458 v 1.32292 1.32291 h 2.6458 2.6459 z m 13.2291,6.61458 v -2.64583 h -1.3229 -1.3229 v 1.32291 1.32292 h -1.3229 -1.3229 v -1.32292 -1.32291 h 1.3229 1.3229 v -1.32292 -1.32292 h 1.3229 1.3229 v -1.32291 -1.32292 h -1.3229 -1.3229 v -1.32292 -1.32291 h -1.3229 -1.3229 v -1.32292 -1.32292 h 1.3229 1.3229 v 1.32292 1.32292 h 1.3229 1.3229 v -2.64584 -2.64583 h 1.3229 1.323 v 2.64583 2.64584 h 1.3229 1.3229 v -1.32292 -1.32292 h 1.3229 1.3229 v 1.32292 1.32292 h -1.3229 -1.3229 v 1.32291 1.32292 h -1.3229 -1.3229 v 1.32292 1.32291 h 1.3229 1.3229 v 1.32292 1.32292 h 1.3229 1.3229 v 1.32291 1.32292 h -1.3229 -1.3229 v -1.32292 -1.32291 h -1.3229 -1.3229 v 2.64583 2.64583 h -1.323 -1.3229 z m 18.5209,1.32292 v -1.32292 h 1.3229 1.32286 v 1.32292 1.32291 h -1.32286 -1.3229 z m 21.16656,0 v -1.32292 h -1.3229 -1.3229 v -1.32292 -1.32291 h 1.3229 1.3229 v 1.32291 1.32292 h 2.6459 2.6458 v -6.61458 -6.61459 h -1.3229 -1.3229 v -1.32291 -1.32292 h 3.9687 3.9688 v 1.32292 1.32291 h -1.323 -1.3229 v 6.61459 6.61458 h -1.3229 -1.3229 v 1.32292 1.32291 h -2.6458 -2.6459 z m 18.5209,-1.32292 v -2.64583 h 1.3229 1.3229 v -1.32292 -1.32292 h 1.3229 1.3229 v -1.32291 -1.32292 h 1.3229 1.323 v -1.32292 -1.32291 h 1.3229 1.3229 v -1.32292 -1.32292 h -5.2917 -5.2916 v -1.32291 -1.32292 h 6.6145 6.6146 v 2.64583 2.64584 h -1.3229 -1.3229 v 1.32291 1.32292 h -1.3229 -1.3229 v 1.32292 1.32291 h -1.323 -1.3229 v 1.32292 1.32292 h -1.3229 -1.3229 v 1.32291 1.32292 h 5.2917 5.2916 v 1.32292 1.32291 h -6.6146 -6.6145 z m 42.3333,1.32292 v -1.32292 h 1.3229 1.3229 v -1.32292 -1.32291 h 1.3229 1.323 v -1.32292 -1.32292 h 1.3229 1.3229 v -1.32291 -1.32292 h -3.9688 -3.9687 v -1.32292 -1.32291 h 6.6146 6.6146 v 1.32291 1.32292 h -1.323 -1.3229 v 1.32292 1.32291 h -1.3229 -1.3229 v 1.32292 1.32292 h -1.3229 -1.3229 v 1.32291 1.32292 h 3.9687 3.9688 v 1.32292 1.32291 h -6.6146 -6.6146 z m -82.02076,-10.58334 v -1.32291 h 1.3229 1.32286 v 1.32291 1.32292 h -1.32286 -1.3229 z m 68.79156,-5.29166 v -1.32292 h 1.3229 1.323 v 1.32292 1.32291 h -1.323 -1.3229 z m 15.875,-5.29167 v -1.32292 h -1.3229 -1.3229 v -1.32291 -1.32292 h 1.3229 1.3229 v 1.32292 1.32291 h 3.9688 3.9687 v -3.96875 -3.96875 h -1.3229 -1.3229 v 1.32292 1.32292 h -2.6458 -2.6459 v -1.32292 -1.32292 h -1.3229 -1.3229 v -3.96875 -3.96875 h 1.3229 1.3229 v 3.96875 3.96875 h 2.6459 2.6458 v -1.32291 -1.32292 h 1.3229 1.3229 v -2.64583 -2.64584 h 1.3229 1.323 v 7.9375 7.9375 h -1.323 -1.3229 v 1.32292 1.32292 h -3.9687 -3.9688 z m -148.16656,-10.58333 v -6.61459 h 2.6458 2.6458 v -1.32291 -1.32292 h -1.3229 -1.3229 v -1.32292 -1.32291 h 1.3229 1.3229 v 1.32291 1.32292 h 1.3229 1.323 v 1.32292 1.32291 h 1.3229 1.3229 v 1.32292 1.32292 h -3.9688 -3.9687 v 1.32291 1.32292 h 1.3229 1.3229 v 1.32292 1.32291 h -1.3229 -1.3229 v 1.32292 1.32292 h 3.9687 3.9688 v 1.32291 1.32292 h -5.2917 -5.2916 z m 21.1666,5.29166 v -1.32291 h -1.3229 -1.3229 v -3.96875 -3.96875 h 1.3229 1.3229 v -1.32292 -1.32292 h 1.3229 1.323 v -1.32291 -1.32292 h -1.323 -1.3229 v -1.32292 -1.32291 h 1.3229 1.323 v 1.32291 1.32292 h 1.3229 1.3229 v 1.32292 1.32291 h 1.3229 1.3229 v 1.32292 1.32292 h 1.3229 1.323 v 2.64583 2.64583 h -5.2917 -5.2917 v 1.32292 1.32292 h 3.9688 3.9687 v 1.32291 1.32292 h -3.9687 -3.9688 z m 7.9375,-7.9375 v -1.32291 h -3.9687 -3.9688 v 1.32291 1.32292 h 3.9688 3.9687 z m 13.2292,7.9375 v -1.32291 h 1.3229 1.3229 v -1.32292 -1.32292 h 1.3229 1.323 v -3.96875 -3.96875 h -1.323 -1.3229 v -1.32291 -1.32292 h -1.3229 -1.3229 v -1.32292 -1.32291 h 1.3229 1.3229 v 1.32291 1.32292 h 1.3229 1.323 v 1.32292 1.32291 h 1.3229 1.3229 v 3.96875 3.96875 h -1.3229 -1.3229 v 1.32292 1.32292 h -1.323 -1.3229 v 1.32291 1.32292 h -1.3229 -1.3229 z m 21.1667,0 v -1.32291 h 3.96866 3.9688 v -2.64584 -2.64583 h -3.9688 -3.96866 v -1.32292 -1.32291 h -1.323 -1.3229 v -2.64584 -2.64583 h 1.3229 1.323 v -1.32292 -1.32291 h 3.96866 3.9688 v 1.32291 1.32292 h 1.3229 1.3229 v 6.61458 6.61459 h -1.3229 -1.3229 v 1.32291 1.32292 h -3.9688 -3.96866 z m 7.93746,-11.90625 v -2.64583 h -3.9688 -3.96866 v 2.64583 2.64584 h 3.96866 3.9688 z m 13.2291,11.90625 v -1.32291 h 1.3229 1.323 v -6.61459 -6.61458 h -1.323 -1.3229 v -1.32292 -1.32291 h 3.9688 3.9687 v 1.32291 1.32292 h -1.3229 -1.3229 v 6.61458 6.61459 h 1.3229 1.3229 v 1.32291 1.32292 h -3.9687 -3.9688 z m 23.8125,-3.96875 v -5.29166 h -1.3229 -1.3229 v -1.32292 -1.32292 h -1.3229 -1.3229 v -2.64583 -2.64583 h 1.3229 1.3229 v 2.64583 2.64583 h 1.3229 1.3229 v 1.32292 1.32292 h 1.3229 1.323 v -1.32292 -1.32292 h 1.3229 1.3229 v -2.64583 -2.64583 h 1.3229 1.3229 v 2.64583 2.64583 h -1.3229 -1.3229 v 1.32292 1.32292 h -1.3229 -1.3229 v 5.29166 5.29167 h -1.323 -1.3229 z m 18.5209,3.96875 v -1.32291 h 1.3229 1.3229 v -3.96875 -3.96875 h -1.3229 -1.3229 v -1.32292 -1.32292 h 2.6458 2.6458 v 5.29167 5.29167 h 1.3229 1.323 v 1.32291 1.32292 h -3.9688 -3.9687 z m 2.6458,-15.875 v -1.32291 h 1.3229 1.3229 v 1.32291 1.32292 h -1.3229 -1.3229 z m -129.64576,-10.58333 v -1.32292 h -1.323 -1.3229 v -3.96875 -3.96875 h 1.3229 1.323 v 3.96875 3.96875 h 3.9687 3.9688 v -3.96875 -3.96875 h 1.3229 1.3229 v 3.96875 3.96875 h -1.3229 -1.3229 v 1.32292 1.32292 h -3.9688 -3.9687 z m 47.625,0 v -1.32292 h -1.323 -1.3229 v -1.32291 -1.32292 h -1.3229 -1.3229 v -3.96875 -3.96875 h 1.3229 1.3229 v -1.32292 -1.32291 h 1.3229 1.323 v -1.32292 -1.32292 h 1.3229 1.3229 v 1.32292 1.32292 h -1.3229 -1.3229 v 1.32291 1.32292 h -1.323 -1.3229 v 3.96875 3.96875 h 1.3229 1.323 v 1.32292 1.32291 h 1.3229 1.3229 v 1.32292 1.32292 h -1.3229 -1.3229 z m 15.875,0 v -1.32292 h -1.323 -1.3229 v -2.64583 -2.64583 h 1.3229 1.323 v -1.32292 -1.32292 h -1.323 -1.3229 v -2.64583 -2.64583 h 1.3229 1.323 v -1.32292 -1.32292 h 3.96866 3.9688 v 1.32292 1.32292 h 1.3229 1.3229 v 2.64583 2.64583 h -1.3229 -1.3229 v 1.32292 1.32292 h 1.3229 1.3229 v 2.64583 2.64583 h -1.3229 -1.3229 v 1.32292 1.32292 h -3.9688 -3.96866 z m 7.93746,-3.96875 v -2.64583 h -3.9688 -3.96866 v 2.64583 2.64583 h 3.96866 3.9688 z m 0,-7.9375 v -2.64583 h -3.9688 -3.96866 v 2.64583 2.64583 h 3.96866 3.9688 z m 10.5833,3.96875 v -9.26042 h 1.3229 1.3229 v 3.96875 3.96875 h 3.9688 3.9687 v -3.96875 -3.96875 h 1.3229 1.323 v 9.26042 9.26042 h -1.323 -1.3229 v -3.96875 -3.96875 h -3.9687 -3.9688 v 3.96875 3.96875 h -1.3229 -1.3229 z m 21.1667,6.61458 v -2.64583 h 1.3229 1.3229 v -1.32292 -1.32291 h 1.3229 1.3229 v -1.32292 -1.32292 h -1.3229 -1.3229 v -1.32291 -1.32292 h -1.3229 -1.3229 v -2.64583 -2.64584 h 1.3229 1.3229 v 2.64584 2.64583 h 1.3229 1.3229 v 1.32292 1.32291 h 1.3229 1.323 v -1.32291 -1.32292 h 1.3229 1.3229 v -2.64583 -2.64584 h 1.3229 1.3229 v 2.64584 2.64583 h -1.3229 -1.3229 v 1.32292 1.32291 h -1.3229 -1.3229 v 1.32292 1.32292 h 1.3229 1.3229 v 1.32291 1.32292 h 1.3229 1.3229 v 2.64583 2.64584 h -1.3229 -1.3229 v -2.64584 -2.64583 h -1.3229 -1.3229 v -1.32292 -1.32291 h -1.323 -1.3229 v 1.32291 1.32292 h -1.3229 -1.3229 v 2.64583 2.64584 h -1.3229 -1.3229 z m 21.1666,-6.61458 v -9.26042 h 1.3229 1.323 v 3.96875 3.96875 h 1.3229 1.3229 v -1.32291 -1.32292 h 2.6458 2.6459 v 1.32292 1.32291 h 1.3229 1.3229 v 5.29167 5.29167 h -1.3229 -1.3229 v -5.29167 -5.29167 h -2.6459 -2.6458 v 1.32292 1.32292 h -1.3229 -1.3229 v 3.96875 3.96875 h -1.323 -1.3229 z m 21.1667,7.9375 v -1.32292 h 1.3229 1.3229 v -1.32291 -1.32292 h 1.3229 1.323 v -1.32292 -1.32291 h -1.323 -1.3229 v -1.32292 -1.32292 h -1.3229 -1.3229 v -1.32291 -1.32292 h 1.3229 1.3229 v 1.32292 1.32291 h 1.3229 1.323 v 1.32292 1.32292 h 1.3229 1.3229 v -1.32292 -1.32292 h 1.3229 1.3229 v -1.32291 -1.32292 h 1.3229 1.323 v 1.32292 1.32291 h -1.323 -1.3229 v 1.32292 1.32292 h -1.3229 -1.3229 v 1.32291 1.32292 h 1.3229 1.3229 v 1.32292 1.32291 h 1.3229 1.323 v 1.32292 1.32292 h -1.323 -1.3229 v -1.32292 -1.32292 h -1.3229 -1.3229 v -1.32291 -1.32292 h -1.3229 -1.3229 v 1.32292 1.32291 h -1.323 -1.3229 v 1.32292 1.32292 h -1.3229 -1.3229 z m -121.70826,-2.64583 v -1.32292 h 1.3229 1.3229 v 1.32292 1.32291 h -1.3229 -1.3229 z m -5.2917,-5.29167 v -1.32292 h 6.6146 6.6146 v 1.32292 1.32292 h -6.6146 -6.6146 z m -15.875,-5.29167 v -1.32291 h -1.3229 -1.3229 v -1.32292 -1.32292 h 1.3229 1.3229 v 1.32292 1.32292 h 2.6458 2.6459 v 1.32291 1.32292 h -2.6459 -2.6458 z m 21.1667,0 v -1.32291 h 1.3229 1.3229 v 1.32291 1.32292 h -1.3229 -1.3229 z m 105.83326,-7.9375 v -1.32291 h -1.3229 -1.3229 v -1.32292 -1.32292 h 1.3229 1.3229 v 1.32292 1.32292 h 2.6458 2.6459 v -2.64584 -2.64583 h -3.9688 -3.9687 v -1.32292 -1.32291 h -1.323 -1.3229 v -2.64584 -2.64583 h 1.3229 1.323 v -1.32292 -1.32291 h 5.2916 5.2917 v 7.9375 7.9375 h -1.3229 -1.3229 v 1.32291 1.32292 h -2.6459 -2.6458 z m 5.2917,-11.90625 v -2.64583 h -3.9688 -3.9687 v 2.64583 2.64584 h 3.9687 3.9688 z m -137.58336,3.96875 v -3.96875 h 1.3229 1.323 v -1.32291 -1.32292 h 3.9687 3.9688 v 1.32292 1.32291 h 1.3229 1.3229 v 3.96875 3.96875 h -1.3229 -1.3229 v -1.32291 -1.32292 h -3.9688 -3.9687 v 1.32292 1.32291 h -1.323 -1.3229 z m 10.5834,-2.64583 v -1.32292 h -3.9688 -3.9687 v 1.32292 1.32292 h 3.9687 3.9688 z m 13.2291,5.29167 v -1.32292 h -1.3229 -1.3229 v -3.96875 -3.96875 h 1.3229 1.3229 v -1.32292 -1.32291 h 1.3229 1.323 v -1.32292 -1.32292 h -1.323 -1.3229 v -1.32291 -1.32292 h 1.3229 1.323 v 1.32292 1.32291 h 1.3229 1.3229 v 2.64584 2.64583 h 1.3229 1.3229 v -1.32292 -1.32291 h 1.3229 1.323 v 6.61458 6.61458 h -1.323 -1.3229 v -1.32291 -1.32292 h -1.3229 -1.3229 v 1.32292 1.32291 h -2.6458 -2.6459 z m 5.2917,-2.64584 v -1.32291 h 1.3229 1.3229 v -1.32292 -1.32292 h -1.3229 -1.3229 v -1.32291 -1.32292 h -2.6458 -2.6459 v 3.96875 3.96875 h 2.6459 2.6458 z m 37.0417,0 v -3.96875 h 1.3229 1.32286 v -1.32291 -1.32292 h 1.3229 1.3229 v -1.32292 -1.32291 h 1.3229 1.323 v -1.32292 -1.32292 h -5.2917 -5.29166 v -1.32291 -1.32292 h 6.61456 6.6146 v 2.64583 2.64584 h -1.3229 -1.3229 v 1.32291 1.32292 h -1.323 -1.3229 v 1.32292 1.32291 h -1.3229 -1.3229 v 3.96875 3.96875 h -1.32286 -1.3229 z m 21.16656,2.64584 v -1.32292 h -1.3229 -1.3229 v -6.61458 -6.61459 h 1.3229 1.3229 v -1.32291 -1.32292 h 3.9688 3.9687 v 1.32292 1.32291 h 1.3229 1.323 v 1.32292 1.32292 h -1.323 -1.3229 v -1.32292 -1.32292 h -3.9687 -3.9688 v 6.61459 6.61458 h 3.9688 3.9687 v -1.32292 -1.32291 h -1.3229 -1.3229 v -1.32292 -1.32292 h 2.6458 2.6459 v 3.96875 3.96875 h -5.2917 -5.2917 z m 21.1667,0 v -1.32292 h -1.3229 -1.3229 v -7.9375 -7.9375 h 1.3229 1.3229 v 7.9375 7.9375 h 1.3229 1.3229 v -3.96875 -3.96875 h 1.3229 1.323 v 3.96875 3.96875 h 1.3229 1.3229 v -7.9375 -7.9375 h 1.3229 1.3229 v 7.9375 7.9375 h -1.3229 -1.3229 v 1.32292 1.32291 h -1.3229 -1.3229 v -1.32291 -1.32292 h -1.323 -1.3229 v 1.32292 1.32291 h -1.3229 -1.3229 z m 42.3333,0 v -1.32292 h -1.3229 -1.3229 v -5.29167 -5.29166 h 1.3229 1.3229 v 5.29166 5.29167 h 1.3229 1.323 v -2.64583 -2.64584 h 1.3229 1.3229 v 2.64584 2.64583 h 1.3229 1.3229 v -5.29167 -5.29166 h 1.3229 1.323 v 5.29166 5.29167 h -1.323 -1.3229 v 1.32292 1.32291 h -1.3229 -1.3229 v -1.32291 -1.32292 h -1.3229 -1.3229 v 1.32292 1.32291 h -1.323 -1.3229 z m -105.83326,-10.58334 v -1.32291 h 1.3229 1.3229 v -2.64584 -2.64583 h 1.3229 1.323 v 2.64583 2.64584 h -1.323 -1.3229 v 1.32291 1.32292 h -1.3229 -1.3229 z m -39.6875,-2.64583 v -1.32292 h -1.3229 -1.3229 v -1.32291 -1.32292 h 1.3229 1.3229 v 1.32292 1.32291 h 2.6458 2.6459 v 1.32292 1.32292 h -2.6459 -2.6458 z m -2.6458,-18.52083 v -6.61459 h 5.2916 5.2917 v 1.32292 1.32292 h -3.9688 -3.9687 v 1.32291 1.32292 h 1.3229 1.3229 v 1.32292 1.32291 h -1.3229 -1.3229 v 1.32292 1.32292 h 3.9687 3.9688 v 1.32291 1.32292 h -5.2917 -5.2916 z m 21.1666,5.29166 v -1.32291 h -1.3229 -1.3229 v -3.96875 -3.96875 h 1.3229 1.3229 v 3.96875 3.96875 h 2.6459 2.6458 v -1.32292 -1.32292 h 1.3229 1.3229 v -2.64583 -2.64583 h 1.3229 1.323 v 5.29166 5.29167 h -1.323 -1.3229 v -1.32292 -1.32291 h -1.3229 -1.3229 v 1.32291 1.32292 h -2.6458 -2.6459 z m 21.1667,0 v -1.32291 h -1.3229 -1.3229 v -2.64584 -2.64583 h 1.3229 1.3229 v -1.32292 -1.32291 h -1.3229 -1.3229 v -2.64584 -2.64583 h 1.3229 1.3229 v -1.32292 -1.32291 h 1.3229 1.3229 v 1.32291 1.32292 h 1.3229 1.323 v 2.64583 2.64584 h -1.323 -1.3229 v 1.32291 1.32292 h 1.3229 1.323 v 1.32292 1.32291 h 1.3229 1.3229 v -1.32291 -1.32292 h 1.3229 1.3229 v 1.32292 1.32291 h -1.3229 -1.3229 v 1.32292 1.32292 h 1.3229 1.3229 v 1.32291 1.32292 h -1.3229 -1.3229 v -1.32292 -1.32291 h -1.3229 -1.3229 v 1.32291 1.32292 h -2.6459 -2.6458 z m 5.2917,-2.64583 v -1.32292 h -1.323 -1.3229 v -1.32291 -1.32292 h -1.3229 -1.3229 v 2.64583 2.64584 h 2.6458 2.6459 z m -2.6459,-9.26042 v -2.64583 h -1.3229 -1.3229 v 2.64583 2.64584 h 1.3229 1.3229 z m 18.5209,11.90625 v -1.32291 h -1.323 -1.3229 v -5.29167 -5.29167 h 1.3229 1.323 v -1.32291 -1.32292 h 1.3229 1.32286 v -1.32292 -1.32291 h 2.6458 2.6459 v 1.32291 1.32292 h -2.6459 -2.6458 v 1.32292 1.32291 h -1.32286 -1.3229 v 1.32292 1.32292 h 3.96866 3.9688 v 1.32291 1.32292 h 1.3229 1.3229 v 2.64583 2.64584 h -1.3229 -1.3229 v 1.32291 1.32292 h -3.9688 -3.96866 z m 7.93746,-3.96875 v -2.64583 h -3.9688 -3.96866 v 2.64583 2.64584 h 3.96866 3.9688 z m 10.5833,-3.96875 v -9.26041 h 6.6146 6.6146 v 1.32291 1.32292 h -5.2917 -5.2917 v 2.64583 2.64584 h 2.6459 2.6458 v 1.32291 1.32292 h -2.6458 -2.6459 v 3.96875 3.96875 h -1.3229 -1.3229 z m 26.4583,6.61459 v -2.64584 h -1.3229 -1.3229 v -2.64583 -2.64583 h -1.3229 -1.3229 v -3.96875 -3.96875 h 1.3229 1.3229 v 3.96875 3.96875 h 1.3229 1.3229 v 2.64583 2.64583 h 1.3229 1.323 v -2.64583 -2.64583 h 1.3229 1.3229 v -3.96875 -3.96875 h 1.3229 1.3229 v 3.96875 3.96875 h -1.3229 -1.3229 v 2.64583 2.64583 h -1.3229 -1.3229 v 2.64584 2.64583 h -1.323 -1.3229 z m 18.5209,-1.32292 v -3.96875 h -1.323 -1.3229 v -1.32292 -1.32291 h 1.3229 1.323 v -2.64584 -2.64583 h 1.3229 1.3229 v -1.32292 -1.32291 h 2.6458 2.6459 v 1.32291 1.32292 h 1.3229 1.3229 v 1.32292 1.32291 h -1.3229 -1.3229 v -1.32291 -1.32292 h -2.6459 -2.6458 v 2.64583 2.64584 h 1.3229 1.3229 v 1.32291 1.32292 h -1.3229 -1.3229 v 3.96875 3.96875 h -1.3229 -1.3229 z m 23.8125,2.64583 v -1.32291 h -1.323 -1.3229 v -2.64584 -2.64583 h -1.3229 -1.3229 v -2.64583 -2.64584 h 1.3229 1.3229 v 2.64584 2.64583 h 1.3229 1.323 v 2.64583 2.64584 h 1.3229 1.3229 v -2.64584 -2.64583 h 1.3229 1.3229 v -2.64583 -2.64584 h 1.3229 1.323 v 2.64584 2.64583 h -1.323 -1.3229 v 2.64583 2.64584 h -1.3229 -1.3229 v 1.32291 1.32292 h -1.3229 -1.3229 z m -129.64586,-13.22916 v -1.32292 h 1.3229 1.323 v -1.32292 -1.32291 h 1.3229 1.3229 v 1.32291 1.32292 h 1.3229 1.3229 v 1.32292 1.32291 h -1.3229 -1.3229 v -1.32291 -1.32292 h -1.3229 -1.3229 v 1.32292 1.32291 h -1.323 -1.3229 z m -21.1666,-2.64584 v -1.32291 h 1.3229 1.3229 v 1.32291 1.32292 h -1.3229 -1.3229 z m 5.2916,0 v -1.32291 h 1.3229 1.323 v 1.32291 1.32292 h -1.323 -1.3229 z m -5.2916,-5.29166 v -1.32292 h 1.3229 1.3229 v -1.32292 -1.32291 h -1.3229 -1.3229 v -1.32292 -1.32292 h -1.323 -1.3229 v -6.61458 -6.61458 h 1.3229 1.323 v -1.32292 -1.32292 h 3.9687 3.9688 v 1.32292 1.32292 h 1.3229 1.3229 v 1.32291 1.32292 h -1.3229 -1.3229 v -1.32292 -1.32291 h -3.9688 -3.9687 v 6.61458 6.61458 h 3.9687 3.9688 v -1.32291 -1.32292 h 1.3229 1.3229 v 1.32292 1.32291 h -1.3229 -1.3229 v 1.32292 1.32292 h -1.323 -1.3229 v 1.32291 1.32292 h -1.3229 -1.3229 v 1.32292 1.32291 h -1.3229 -1.3229 z m 21.1666,0 v -1.32292 h 1.3229 1.323 v -1.32292 -1.32291 h -1.323 -1.3229 v -1.32292 -1.32292 h -1.3229 -1.3229 v -3.96875 -3.96875 h 1.3229 1.3229 v -1.32291 -1.32292 h 3.9688 3.9687 v 1.32292 1.32291 h -3.9687 -3.9688 v 3.96875 3.96875 h 3.9688 3.9687 v 1.32292 1.32292 h -1.3229 -1.3229 v 1.32291 1.32292 h -1.3229 -1.3229 v 1.32292 1.32291 h -1.323 -1.3229 z m 26.4584,-6.61459 v -2.64583 h 2.6458 2.6458 v 2.64583 2.64584 h -2.6458 -2.6458 z m 15.875,1.32292 v -1.32292 h -1.323 -1.3229 v -1.32291 -1.32292 h 1.3229 1.323 v 1.32292 1.32291 h 3.96866 3.9688 v -3.96875 -3.96875 h -5.2917 -5.29166 v -3.96875 -3.96875 h 6.61456 6.6146 v 1.32292 1.32292 h -5.2917 -5.29156 v 1.32291 1.32292 h 3.96866 3.9688 v 1.32292 1.32291 h 1.3229 1.3229 v 3.96875 3.96875 h -1.3229 -1.3229 v 1.32292 1.32292 h -3.9688 -3.96866 z m 18.52076,-7.9375 v -9.26042 h 6.6146 6.6146 v 1.32292 1.32292 h -5.2917 -5.2917 v 2.64583 2.64583 h 2.6459 2.6458 v 1.32292 1.32292 h -2.6458 -2.6459 v 2.64583 2.64583 h 5.2917 5.2917 v 1.32292 1.32292 h -6.6146 -6.6146 z m 23.8125,7.9375 v -1.32292 h -1.3229 -1.3229 v -7.9375 -7.9375 h 1.3229 1.3229 v 7.9375 7.9375 h 3.9687 3.9688 v -7.9375 -7.9375 h 1.3229 1.3229 v 7.9375 7.9375 h -1.3229 -1.3229 v 1.32292 1.32292 h -3.9688 -3.9687 z m 21.1667,0 v -1.32292 h -1.323 -1.3229 v -3.96875 -3.96875 h 1.3229 1.323 v -1.32291 -1.32292 h 3.9687 3.9688 v 1.32292 1.32291 h 1.3229 1.3229 v 2.64584 2.64583 h -5.2917 -5.2916 v 1.32292 1.32291 h 3.9687 3.9688 v 1.32292 1.32292 h -3.9688 -3.9687 z m 7.9375,-7.9375 v -1.32292 h -3.9688 -3.9687 v 1.32292 1.32292 h 3.9687 3.9688 z m 13.2291,7.9375 v -1.32292 h -1.3229 -1.3229 v -5.29166 -5.29167 h 1.3229 1.3229 v 5.29167 5.29166 h 2.6459 2.6458 v -1.32291 -1.32292 h 1.3229 1.3229 v -3.96875 -3.96875 h 1.3229 1.323 v 6.61458 6.61459 h -1.323 -1.3229 v -1.32292 -1.32292 h -1.3229 -1.3229 v 1.32292 1.32292 h -2.6458 -2.6459 z m -108.47906,-2.64583 v -1.32292 h 1.3229 1.3229 v -1.32292 -1.32291 h 1.3229 1.3229 v -1.32292 -1.32292 h 1.3229 1.323 v -1.32291 -1.32292 h 1.3229 1.3229 v -1.32292 -1.32291 h 1.3229 1.3229 v 1.32291 1.32292 h -1.3229 -1.3229 v 1.32292 1.32291 h -1.3229 -1.3229 v 1.32292 1.32292 h -1.323 -1.3229 v 1.32291 1.32292 h -1.3229 -1.3229 v 1.32292 1.32291 h -1.3229 -1.3229 z m 0,-11.90625 v -2.64584 h 2.6458 2.6458 v 2.64584 2.64583 h -2.6458 -2.6458 z m 5.2916,-9.26042 v -1.32292 h -1.3229 -1.3229 v -1.32291 -1.32292 h -1.3229 -1.3229 v -1.32292 -1.32291 h 1.3229 1.3229 v 1.32291 1.32292 h 1.3229 1.3229 v -2.64583 -2.64584 h -1.3229 -1.3229 v -1.32291 -1.32292 h -1.3229 -1.3229 v -1.32292 -1.32291 h 1.3229 1.3229 v -1.32292 -1.32292 h 1.3229 1.3229 v -1.32291 -1.32292 h 1.3229 1.323 v 1.32292 1.32291 h 1.3229 1.3229 v 1.32292 1.32292 h -1.3229 -1.3229 v 1.32291 1.32292 h 1.3229 1.3229 v 1.32292 1.32291 h 1.3229 1.3229 v 2.64584 2.64583 h -1.3229 -1.3229 v 1.32292 1.32291 h -1.3229 -1.3229 v 1.32292 1.32292 h -1.323 -1.3229 z m 5.2917,-6.61458 v -2.64584 h -1.3229 -1.3229 v 2.64584 2.64583 h 1.3229 1.3229 z m -5.2917,-6.61459 v -1.32291 h -1.3229 -1.3229 v 1.32291 1.32292 h 1.3229 1.3229 z m -44.9791,10.58334 v -1.32292 h -1.323 -1.3229 v -3.96875 -3.96875 h 1.3229 1.323 v -2.64583 -2.64584 h 1.3229 1.3229 v -1.32291 -1.32292 h 1.3229 1.3229 v 1.32292 1.32291 h 1.3229 1.323 v 1.32292 1.32292 h 1.3229 1.3229 v 6.61458 6.61458 h -1.3229 -1.3229 v -1.32291 -1.32292 h -1.323 -1.3229 v 1.32292 1.32291 h -2.6458 -2.6458 z m 5.2916,-2.64584 v -1.32291 h 1.3229 1.323 v -1.32292 -1.32292 h -1.323 -1.3229 v -1.32291 -1.32292 h 1.3229 1.323 v -1.32292 -1.32291 h -1.323 -1.3229 v -1.32292 -1.32292 h -1.3229 -1.3229 v 1.32292 1.32292 h 1.3229 1.3229 v 1.32291 1.32292 h -2.6458 -2.6458 v 3.96875 3.96875 h 2.6458 2.6458 z m 15.875,2.64584 v -1.32292 h 1.3229 1.323 v -3.96875 -3.96875 h -1.323 -1.3229 v -1.32292 -1.32291 h 2.6459 2.6458 v 5.29166 5.29167 h 1.3229 1.3229 v 1.32292 1.32291 h -3.9687 -3.9688 z m 47.62496,-1.32292 v -2.64583 h -3.96866 -3.9688 v -2.64584 -2.64583 h 1.3229 1.323 v -1.32292 -1.32291 h 1.3229 1.32286 v -1.32292 -1.32292 h 1.3229 1.3229 v -1.32291 -1.32292 h 1.3229 1.323 v 5.29167 5.29166 h 1.3229 1.3229 v 1.32292 1.32292 h -1.3229 -1.3229 v 2.64583 2.64583 h -1.323 -1.3229 z m 0,-7.9375 v -2.64583 h -1.3229 -1.3229 v 1.32291 1.32292 h -1.32286 -1.3229 v 1.32292 1.32291 h 2.64576 2.6458 z m 13.2292,1.32292 v -9.26042 h 5.2917 5.2916 v 1.32292 1.32291 h 1.3229 1.323 v 6.61459 6.61458 h -1.323 -1.3229 v 1.32292 1.32291 h -5.2916 -5.2917 z m 10.5833,0 v -6.61459 h -3.9687 -3.9688 v 6.61459 6.61458 h 3.9688 3.9687 z m 15.875,1.32291 v -7.9375 h -2.6458 -2.6458 v -1.32291 -1.32292 h 6.6145 6.6146 v 1.32292 1.32291 h -2.6458 -2.6458 v 7.9375 7.9375 h -1.323 -1.3229 z m 18.5209,6.61459 v -1.32292 h -1.323 -1.3229 v -3.96875 -3.96875 h 1.3229 1.323 v -1.32292 -1.32291 h 3.9687 3.9688 v -2.64584 -2.64583 h 1.3229 1.3229 v 9.26042 9.26041 h -5.2917 -5.2916 z m 7.9375,-5.29167 v -3.96875 h -3.9688 -3.9687 v 3.96875 3.96875 h 3.9687 3.9688 z m 15.875,5.29167 v -1.32292 h -1.323 -1.3229 v -7.9375 -7.9375 h 1.3229 1.323 v 2.64583 2.64584 h 2.6458 2.6458 v 1.32291 1.32292 h -2.6458 -2.6458 v 3.96875 3.96875 h 2.6458 2.6458 v 1.32292 1.32291 h -2.6458 -2.6458 z m -129.64586,-15.875 v -1.32292 h 1.3229 1.323 v 1.32292 1.32291 h -1.323 -1.3229 z m 5.2917,0 v -1.32292 h 1.3229 1.3229 v 1.32292 1.32291 h -1.3229 -1.3229 z m -26.4583,-11.90626 v -2.64583 h 1.3229 1.3229 v -1.32292 -1.32291 h -1.3229 -1.3229 v -1.32292 -1.32292 h 1.3229 1.3229 v -2.64583 -2.64583 h 1.3229 1.3229 v -1.32292 -1.32292 h 1.3229 1.323 v 1.32292 1.32292 h 1.3229 1.3229 v 1.32291 1.32292 h -1.3229 -1.3229 v -1.32292 -1.32291 h -1.323 -1.3229 v 2.64583 2.64583 h 1.3229 1.323 v 1.32292 1.32292 h -1.323 -1.3229 v 1.32291 1.32292 h -1.3229 -1.3229 v 1.32292 1.32291 h 2.6458 2.6459 v -1.32291 -1.32292 h 1.3229 1.3229 v 2.64583 2.64584 h -5.2917 -5.2916 z m 21.1666,1.32292 v -1.32292 h -1.3229 -1.3229 v -3.96875 -3.96875 h 1.3229 1.3229 v -1.32291 -1.32292 h 3.9688 3.9687 v 1.32292 1.32291 h 1.3229 1.323 v 2.64584 2.64583 h -5.2917 -5.2917 v 1.32292 1.32291 h 3.9688 3.9687 v 1.32292 1.32292 h -3.9687 -3.9688 z m 7.9375,-7.9375 v -1.32292 h -3.9687 -3.9688 v 1.32292 1.32292 h 3.9688 3.9687 z m 13.2292,6.61458 v -2.64583 h -1.3229 -1.3229 v -1.32292 -1.32291 h 1.3229 1.3229 v -1.32292 -1.32292 h -1.3229 -1.3229 v -1.32291 -1.32292 h 1.3229 1.3229 v -2.64583 -2.64584 h 1.3229 1.3229 v 2.64584 2.64583 h 1.3229 1.323 v -2.64583 -2.64584 h 1.3229 1.3229 v 2.64584 2.64583 h 1.3229 1.3229 v 1.32292 1.32291 h -1.3229 -1.3229 v 1.32292 1.32292 h 1.3229 1.3229 v 1.32291 1.32292 h -1.3229 -1.3229 v 2.64583 2.64584 h -1.3229 -1.3229 v -2.64584 -2.64583 h -1.323 -1.3229 v 2.64583 2.64584 h -1.3229 -1.3229 z m 5.2917,-6.61458 v -1.32292 h -1.323 -1.3229 v 1.32292 1.32292 h 1.3229 1.323 z m 15.875,7.9375 v -1.32292 h -1.323 -1.3229 v -1.32291 -1.32292 h 1.3229 1.323 v 1.32292 1.32291 h 3.96866 3.9688 v -2.64583 -2.64583 h -2.6459 -2.6458 v -1.32292 -1.32292 h 1.3229 1.3229 v -1.32291 -1.32292 h 1.3229 1.323 v -1.32292 -1.32291 h -5.2917 -5.29166 v -1.32292 -1.32292 h 6.61456 6.6146 v 2.64584 2.64583 h -1.3229 -1.3229 v 2.64583 2.64584 h 1.3229 1.3229 v 2.64583 2.64583 h -1.3229 -1.3229 v 1.32292 1.32292 h -3.9688 -3.96866 z m 21.16656,0 v -1.32292 h -1.3229 -1.3229 v -6.61458 -6.61458 h 1.3229 1.3229 v -1.32292 -1.32292 h 3.9688 3.9687 v 1.32292 1.32292 h 1.3229 1.323 v 1.32291 1.32292 h -1.323 -1.3229 v -1.32292 -1.32291 h -3.9687 -3.9688 v 6.61458 6.61458 h 3.9688 3.9687 v -1.32291 -1.32292 h 1.3229 1.323 v 1.32292 1.32291 h -1.323 -1.3229 v 1.32292 1.32292 h -3.9687 -3.9688 z m 21.1667,0 v -1.32292 h -1.3229 -1.3229 v -1.32291 -1.32292 h 1.3229 1.3229 v 1.32292 1.32291 h 3.9687 3.9688 v -2.64583 -2.64583 h -3.9688 -3.9687 v -1.32292 -1.32292 h -1.3229 -1.3229 v -2.64583 -2.64583 h 1.3229 1.3229 v -1.32292 -1.32292 h 3.9687 3.9688 v 1.32292 1.32292 h 1.3229 1.3229 v 1.32291 1.32292 h -1.3229 -1.3229 v -1.32292 -1.32291 h -3.9688 -3.9687 v 2.64583 2.64583 h 3.9687 3.9688 v 1.32292 1.32292 h 1.3229 1.3229 v 2.64583 2.64583 h -1.3229 -1.3229 v 1.32292 1.32292 h -3.9688 -3.9687 z m 21.1667,0 v -1.32292 h -1.323 -1.3229 v -3.96875 -3.96875 h 1.3229 1.323 v -1.32291 -1.32292 h 3.9687 3.9688 v 1.32292 1.32291 h -3.9688 -3.9687 v 3.96875 3.96875 h 3.9687 3.9688 v 1.32292 1.32292 h -3.9688 -3.9687 z m 18.5208,0 v -1.32292 h 5.2917 5.2916 v -1.32291 -1.32292 h -3.9687 -3.9688 v -1.32292 -1.32291 h -1.3229 -1.3229 v -1.32292 -1.32292 h 1.3229 1.3229 v -1.32291 -1.32292 h 3.9688 3.9687 v 1.32292 1.32291 h -3.9687 -3.9688 v 1.32292 1.32292 h 3.9688 3.9687 v 1.32291 1.32292 h 1.3229 1.323 v 1.32292 1.32291 h -1.323 -1.3229 v 1.32292 1.32292 h -5.2916 -5.2917 z m -124.35416,-15.875 v -1.32292 h 1.3229 1.323 v 1.32292 1.32292 h -1.323 -1.3229 z m 5.2917,0 v -1.32292 h 1.3229 1.3229 v 1.32292 1.32292 h -1.3229 -1.3229 z m -26.4583,-15.875 v -6.61458 h 1.3229 1.3229 v -1.32292 -1.32292 h 1.3229 1.3229 v -1.32291 -1.32292 h 1.3229 1.323 v 1.32292 1.32291 h -1.323 -1.3229 v 1.32292 1.32292 h 2.6459 2.6458 v 1.32291 1.32292 h -3.9688 -3.9687 v 1.32292 1.32291 h 1.3229 1.3229 v 1.32292 1.32292 h -1.3229 -1.3229 v 1.32291 1.32292 h 3.9687 3.9688 v 1.32292 1.32291 h -5.2917 -5.2916 z m 21.1666,5.29167 v -1.32292 h -1.3229 -1.3229 v -3.96875 -3.96875 h 1.3229 1.3229 v -1.32292 -1.32291 h 1.3229 1.323 v -1.32292 -1.32292 h 1.3229 1.3229 v -1.32291 -1.32292 h 1.3229 1.3229 v 1.32292 1.32291 h -1.3229 -1.3229 v 1.32292 1.32292 h 1.3229 1.3229 v 1.32291 1.32292 h 1.3229 1.323 v 2.64583 2.64584 h -5.2917 -5.2917 v 1.32291 1.32292 h 3.9688 3.9687 v 1.32292 1.32291 h -3.9687 -3.9688 z m 7.9375,-7.9375 v -1.32292 h -3.9687 -3.9688 v 1.32292 1.32291 h 3.9688 3.9687 z m 31.75,6.61458 v -2.64583 h 1.3229 1.323 v -1.32292 -1.32292 h 1.3229 1.32286 v -1.32291 -1.32292 h 2.6458 2.6459 v -2.64583 -2.64584 h -3.9688 -3.96866 v 1.32292 1.32292 h -1.323 -1.3229 v -1.32292 -1.32292 h 1.3229 1.323 v -1.32291 -1.32292 h 3.96866 3.9688 v 1.32292 1.32291 h 1.3229 1.3229 v 2.64584 2.64583 h -1.3229 -1.3229 v 1.32292 1.32291 h -2.6459 -2.6458 v 1.32292 1.32292 h -1.32286 -1.3229 v 1.32291 1.32292 h 5.29156 5.2917 v 1.32292 1.32291 h -6.6146 -6.61456 z m 21.16666,-6.61458 v -9.26042 h 5.2917 5.2916 v 1.32292 1.32291 h 1.3229 1.323 v 2.64584 2.64583 h -1.323 -1.3229 v 1.32292 1.32291 h 1.3229 1.323 v 2.64584 2.64583 h -1.323 -1.3229 v 1.32292 1.32291 h -5.2916 -5.2917 z m 10.5833,3.96875 v -2.64584 h -3.9687 -3.9688 v 2.64584 2.64583 h 3.9688 3.9687 z m 0,-7.9375 v -2.64584 h -3.9687 -3.9688 v 2.64584 2.64583 h 3.9688 3.9687 z m 10.5834,3.96875 v -9.26042 h 5.2916 5.2917 v 1.32292 1.32291 h 1.3229 1.3229 v 2.64584 2.64583 h -1.3229 -1.3229 v 1.32292 1.32291 h -1.3229 -1.3229 v 1.32292 1.32292 h 1.3229 1.3229 v 1.32291 1.32292 h 1.3229 1.3229 v 1.32292 1.32291 h -1.3229 -1.3229 v -1.32291 -1.32292 h -1.3229 -1.3229 v -1.32292 -1.32291 h -1.323 -1.3229 v -1.32292 -1.32292 h -1.3229 -1.3229 v 3.96875 3.96875 h -1.3229 -1.3229 z m 10.5833,-3.96875 v -2.64584 h -3.9688 -3.9687 v 2.64584 2.64583 h 3.9687 3.9688 z m 10.5833,3.96875 v -9.26042 h 1.3229 1.323 v 2.64583 2.64584 h 3.9687 3.9688 v 1.32291 1.32292 h 1.3229 1.3229 v 3.96875 3.96875 h -1.3229 -1.3229 v 1.32292 1.32291 h -5.2917 -5.2917 z m 10.5834,2.64583 v -3.96875 h -3.9688 -3.9687 v 3.96875 3.96875 h 3.9687 3.9688 z m 10.5833,0 v -6.61458 h 1.3229 1.3229 v 1.32291 1.32292 h 1.3229 1.323 v -1.32292 -1.32291 h 2.6458 2.6458 v 1.32291 1.32292 h 1.3229 1.323 v 1.32292 1.32291 h -1.323 -1.3229 v -1.32291 -1.32292 h -2.6458 -2.6458 v 1.32292 1.32291 h -1.323 -1.3229 v 3.96875 3.96875 h -1.3229 -1.3229 z m -103.18746,-7.9375 v -3.96875 h 1.3229 1.3229 v 3.96875 3.96875 h -1.3229 -1.3229 z m 5.2917,0 v -3.96875 h 1.3229 1.3229 v 3.96875 3.96875 h -1.3229 -1.3229 z m 108.47906,-9.26042 v -2.64583 h -3.9687 -3.9688 v -1.32292 -1.32291 h -1.3229 -1.3229 v -3.96875 -3.96875 h 1.3229 1.3229 v -1.32292 -1.32292 h 5.2917 5.2917 v 9.26042 9.26042 h -1.323 -1.3229 z m 0,-9.26041 v -3.96875 h -3.9687 -3.9688 v 3.96875 3.96875 h 3.9688 3.9687 z m -158.74996,2.64583 v -3.96875 h 1.3229 1.323 v -1.32292 -1.32291 h 3.9687 3.9688 v 1.32291 1.32292 h 1.3229 1.3229 v 3.96875 3.96875 h -1.3229 -1.3229 v -1.32292 -1.32291 h -3.9688 -3.9687 v 1.32291 1.32292 h -1.323 -1.3229 z m 10.5834,-2.64583 v -1.32292 h -3.9688 -3.9687 v 1.32292 1.32291 h 3.9687 3.9688 z m 10.5833,5.29166 v -1.32291 h 6.6146 6.6146 v 1.32291 1.32292 h -6.6146 -6.6146 z m 26.4583,0 v -1.32291 h 1.3229 1.323 v 1.32291 1.32292 h -1.323 -1.3229 z m 21.16666,-5.29166 v -6.61459 h -1.32286 -1.3229 v -1.32291 -1.32292 h 1.3229 1.32286 v -1.32292 -1.32291 h 1.3229 1.3229 v 9.26041 9.26042 h -1.3229 -1.3229 z m 15.875,-1.32292 v -7.9375 h 1.3229 1.3229 v -1.32292 -1.32291 h 3.9688 3.9687 v 1.32291 1.32292 h 1.3229 1.323 v 7.9375 7.9375 h -1.323 -1.3229 v -2.64583 -2.64584 h -3.9687 -3.9688 v 2.64584 2.64583 h -1.3229 -1.3229 z m 10.5833,-3.96875 v -3.96875 h -3.9687 -3.9688 v 3.96875 3.96875 h 3.9688 3.9687 z m 13.2292,10.58333 v -1.32291 h -1.3229 -1.3229 v -6.61459 -6.61458 h 1.3229 1.3229 v -1.32292 -1.32291 h 3.9687 3.9688 v 1.32291 1.32292 h 1.3229 1.3229 v 5.29167 5.29166 h -1.3229 -1.3229 v 1.32292 1.32292 h 1.3229 1.3229 v 1.32291 1.32292 h -1.3229 -1.3229 v -1.32292 -1.32291 h -1.3229 -1.3229 v 1.32291 1.32292 h -2.6459 -2.6458 z m 5.2917,-2.64583 v -1.32292 h 1.3229 1.3229 v -5.29166 -5.29167 h -3.9688 -3.9687 v 6.61458 6.61459 h 2.6458 2.6459 z m -2.6459,-2.64583 v -1.32292 h 1.3229 1.323 v 1.32292 1.32291 h -1.323 -1.3229 z m 18.5209,5.29166 v -1.32291 h -1.323 -1.3229 v -3.96875 -3.96875 h 1.3229 1.323 v -1.32292 -1.32292 h 2.6458 2.6458 v 1.32292 1.32292 h 1.3229 1.323 v -1.32292 -1.32292 h 1.3229 1.3229 v 6.61459 6.61458 h -1.3229 -1.3229 v -1.32292 -1.32291 h -1.323 -1.3229 v 1.32291 1.32292 h -2.6458 -2.6458 z m 5.2916,-2.64583 v -1.32292 h 1.3229 1.323 v -1.32291 -1.32292 h -1.323 -1.3229 v -1.32292 -1.32291 h -2.6458 -2.6458 v 3.96875 3.96875 h 2.6458 2.6458 z m -108.47906,-3.96875 v -2.64583 h -2.6459 -2.6458 v -1.32292 -1.32292 h 2.6458 2.6459 v -2.64583 -2.64583 h 1.3229 1.3229 v 2.64583 2.64583 h 2.6458 2.6459 v 1.32292 1.32292 h -2.6459 -2.6458 v 2.64583 2.64583 h -1.3229 -1.3229 z m 21.1666,-3.96875 v -6.61458 h 1.3229 1.323 v 6.61458 6.61458 h -1.323 -1.3229 z m -44.9791,-2.64583 v -1.32292 h 1.3229 1.3229 v -1.32292 -1.32291 h 1.3229 1.3229 v 1.32291 1.32292 h 1.3229 1.323 v 1.32292 1.32291 h -1.323 -1.3229 v -1.32291 -1.32292 h -1.3229 -1.3229 v 1.32292 1.32291 h -1.3229 -1.3229 z m 145.52076,-15.875 v -9.26042 h 5.2917 5.2916 v 1.32292 1.32291 h 1.3229 1.323 v 3.96875 3.96875 h -1.323 -1.3229 v 1.32292 1.32292 h -3.9687 -3.9688 v 2.64583 2.64583 h -1.3229 -1.3229 z m 10.5833,-2.64584 v -3.96875 h -3.9687 -3.9688 v 3.96875 3.96875 h 3.9688 3.9687 z m -153.45826,5.29167 v -1.32292 h 1.3229 1.3229 v 1.32292 1.32292 h -1.3229 -1.3229 z m 63.49996,0 v -1.32292 h -1.32286 -1.3229 v -1.32291 -1.32292 h -1.323 -1.3229 v -3.96875 -3.96875 h 1.3229 1.323 v -1.32292 -1.32291 h 1.3229 1.32286 v -1.32292 -1.32292 h 1.3229 1.3229 v 1.32292 1.32292 h 1.3229 1.323 v 1.32291 1.32292 h 1.3229 1.3229 v 3.96875 3.96875 h -1.3229 -1.3229 v 1.32292 1.32291 h -1.323 -1.3229 v 1.32292 1.32292 h -1.3229 -1.3229 z m 2.6458,-2.64583 v -1.32292 h 1.3229 1.323 v -3.96875 -3.96875 h -1.323 -1.3229 v -1.32292 -1.32291 h -1.3229 -1.3229 v 1.32291 1.32292 h -1.32286 -1.3229 v 3.96875 3.96875 h 1.3229 1.32286 v 1.32292 1.32291 h 1.3229 1.3229 z m 15.875,2.64583 v -1.32292 h -1.3229 -1.3229 v -6.61458 -6.61458 h 1.3229 1.3229 v -1.32292 -1.32292 h 3.9688 3.9687 v 1.32292 1.32292 h 1.3229 1.323 v 5.29166 5.29167 h -3.9688 -3.9687 v -3.96875 -3.96875 h 2.6458 2.6458 v -1.32292 -1.32291 h -3.9687 -3.9688 v 6.61458 6.61458 h 3.9688 3.9687 v 1.32292 1.32292 h -3.9687 -3.9688 z m 7.9375,-7.9375 v -1.32292 h -1.3229 -1.3229 v 1.32292 1.32292 h 1.3229 1.3229 z m 10.5834,0 v -9.26042 h 5.2916 5.2917 v 1.32292 1.32292 h 1.3229 1.3229 v 2.64583 2.64583 h -1.3229 -1.3229 v 1.32292 1.32292 h -3.9688 -3.9687 v 3.96875 3.96875 h -1.3229 -1.3229 z m 10.5833,-3.96875 v -2.64583 h -3.9688 -3.9687 v 2.64583 2.64583 h 3.9687 3.9688 z m -111.12496,6.61458 v -1.32291 h -1.3229 -1.3229 v -1.32292 -1.32292 h -1.323 -1.3229 v -2.64583 -2.64583 h 1.3229 1.323 v -1.32292 -1.32292 h 3.9687 3.9688 v 1.32292 1.32292 h 1.3229 1.3229 v 1.32291 1.32292 h -1.3229 -1.3229 v -1.32292 -1.32291 h -3.9688 -3.9687 v 2.64583 2.64583 h 1.3229 1.3229 v 1.32292 1.32292 h 1.3229 1.3229 v 1.32291 1.32292 h -1.3229 -1.3229 z m 119.06246,-2.64583 v -1.32292 h 10.5833 10.5834 v 1.32292 1.32292 h -10.5834 -10.5833 z m -97.89576,-2.64583 v -1.32292 h -1.323 -1.3229 v -1.32292 -1.32291 h 1.3229 1.323 v -1.32292 -1.32292 h 2.6458 2.6458 v 1.32292 1.32292 h 1.3229 1.323 v 1.32291 1.32292 h -1.323 -1.3229 v 1.32292 1.32291 h -2.6458 -2.6458 z m 5.2916,-2.64584 v -1.32291 h -2.6458 -2.6458 v 1.32291 1.32292 h 2.6458 2.6458 z"
         style="fill:#ffffff;fill-opacity:1;stroke-width:0.26458332" />
      <path
         inkscape:connector-curvature="0"
         id="path966"
         d="m -175.42364,-88.67362 v -3.96875 h -10.5833 -10.5833 v 2.64583 2.64584 h -3.9688 -3.9687 v -2.64584 -2.64583 h 3.9687 3.9688 v -1.32292 -1.32291 h -3.9688 -3.9687 v -3.968754 -3.968746 h 3.9687 3.9688 v -1.32292 -1.32292 h -3.9688 -3.9687 v -2.64583 -2.64583 h 14.552 14.5521 v -3.96875 -3.96875 h -10.5833 -10.5833 v 2.64583 2.64583 h -3.9688 -3.9687 v -2.64583 -2.64583 h 3.9687 3.9688 v -1.32292 -1.32292 h -3.9688 -3.9687 v -3.96875 -3.96875 h 9.2604 9.2604 v -3.96875 -3.96875 h 5.2917 5.2916 v -3.96875 -3.96875 h -10.5833 -10.5833 v 2.64584 2.64583 h -3.9688 -3.9687 v -2.64583 -2.64584 h 3.9687 3.9688 v -1.32291 -1.32292 h -3.9688 -3.9687 v -3.96875 -3.96875 h 3.9687 3.9688 v -3.96875 -3.96875 h 5.2916 5.2917 v 3.96875 3.96875 h 5.2917 5.2916 v -7.9375 -7.9375 h -10.5833 -10.5833 v 2.64583 2.64584 h -3.9688 -3.9687 v -2.64584 -2.64583 h 3.9687 3.9688 v -1.32292 -1.32291 h -3.9688 -3.9687 v -3.96875 -3.96875 h 46.302 46.3021 v 9.26041 9.26042 h -5.2916 -5.2917 v 3.96875 3.96875 h 5.2917 5.2916 v 35.71875 35.71875 h -15.875 -15.875 v -3.96875 -3.96875 h -10.5833 -10.5833 v 3.96875 3.96875 h -5.2917 -5.2917 z m 31.75,-26.45833 v -3.96875 h -10.5833 -10.5833 v 3.96875 3.96875 h 10.5833 10.5833 z m -21.1666,-18.52084 v -3.96875 h 5.2916 5.2917 v 3.96875 3.96875 h 5.2917 5.2916 v -7.9375 -7.9375 h -10.5833 -10.5833 v 3.96875 3.96875 h -5.2917 -5.2917 v 3.96875 3.96875 h 5.2917 5.2917 z m 42.3333,0 v -3.96875 h -5.2917 -5.2916 v 3.96875 3.96875 h 5.2916 5.2917 z m -31.75,-26.45833 v -3.96875 h 5.2917 5.2916 v 3.96875 3.96875 h 5.2917 5.2917 v -3.96875 -3.96875 h -5.2917 -5.2917 v -3.96875 -3.96875 h -10.5833 -10.5833 v 7.9375 7.9375 h 5.2916 5.2917 z m -103.1875,70.11458 v -2.64583 h 3.9687 3.9688 v 2.64583 2.64584 h -3.9688 -3.9687 z m 31.75,0 v -2.64583 h 3.9687 3.9688 v 2.64583 2.64584 h -3.9688 -3.9687 z m 10.5833,0 v -2.64583 h 3.9688 3.9687 v 2.64583 2.64584 h -3.9687 -3.9688 z m -63.5,-9.260414 v -3.968746 h 3.9688 3.9687 v 3.968746 3.968754 h -3.9687 -3.9688 z m 10.5834,0 v -3.968746 h 3.9687 3.9688 v 3.968746 3.968754 h -3.9688 -3.9687 z m 10.5833,0 v -3.968746 h 3.9687 3.9688 v 3.968746 3.968754 h -3.9688 -3.9687 z m 10.5833,0 v -3.968746 h 3.9688 3.9687 v 3.968746 3.968754 h -3.9687 -3.9688 z m 10.5834,0 v -3.968746 h 3.9687 3.9688 v 3.968746 3.968754 h -3.9688 -3.9687 z m 10.5833,0 v -3.968746 h 3.9687 3.9688 v 3.968746 3.968754 h -3.9688 -3.9687 z m 10.5833,0 v -3.968746 h 3.9688 3.9687 v 3.968746 3.968754 h -3.9687 -3.9688 z m -63.5,-9.260416 v -2.64583 h 3.9688 3.9687 v 2.64583 2.64583 h -3.9687 -3.9688 z m 10.5834,0 v -2.64583 h 3.9687 3.9688 v 2.64583 2.64583 h -3.9688 -3.9687 z m 10.5833,0 v -2.64583 h 3.9687 3.9688 v 2.64583 2.64583 h -3.9688 -3.9687 z m 10.5833,0 v -2.64583 h 3.9688 3.9687 v 2.64583 2.64583 h -3.9687 -3.9688 z m 10.5834,0 v -2.64583 h 3.9687 3.9688 v 2.64583 2.64583 h -3.9688 -3.9687 z m 10.5833,0 v -2.64583 h 3.9687 3.9688 v 2.64583 2.64583 h -3.9688 -3.9687 z m 10.5833,0 v -2.64583 h 3.9688 3.9687 v 2.64583 2.64583 h -3.9687 -3.9688 z m -42.3333,-7.9375 v -2.64583 h 3.9687 3.9688 v 2.64583 2.64583 h -3.9688 -3.9687 z m 31.75,0 v -2.64583 h 3.9687 3.9688 v 2.64583 2.64583 h -3.9688 -3.9687 z m 10.5833,0 v -2.64583 h 3.9688 3.9687 v 2.64583 2.64583 h -3.9687 -3.9688 z m -63.5,-9.26042 v -3.96875 h 3.9688 3.9687 v 3.96875 3.96875 h -3.9687 -3.9688 z m 10.5834,0 v -3.96875 h 3.9687 3.9688 v 3.96875 3.96875 h -3.9688 -3.9687 z m 10.5833,0 v -3.96875 h 3.9687 3.9688 v 3.96875 3.96875 h -3.9688 -3.9687 z m 10.5833,0 v -3.96875 h 3.9688 3.9687 v 3.96875 3.96875 h -3.9687 -3.9688 z m 10.5834,0 v -3.96875 h 3.9687 3.9688 v 3.96875 3.96875 h -3.9688 -3.9687 z m 10.5833,0 v -3.96875 h 3.9687 3.9688 v 3.96875 3.96875 h -3.9688 -3.9687 z m 10.5833,0 v -3.96875 h 3.9688 3.9687 v 3.96875 3.96875 h -3.9687 -3.9688 z m -52.9166,-9.26041 v -2.64584 h 3.9687 3.9688 v 2.64584 2.64583 h -3.9688 -3.9687 z m 21.1666,0 v -2.64584 h 3.9688 3.9687 v 2.64584 2.64583 h -3.9687 -3.9688 z m 21.1667,0 v -2.64584 h 3.9687 3.9688 v 2.64584 2.64583 h -3.9688 -3.9687 z m 21.1667,0 v -2.64584 h 3.9687 3.9688 v 2.64584 2.64583 h -3.9688 -3.9687 z m -52.9167,-7.9375 v -2.64584 h 3.9687 3.9688 v 2.64584 2.64583 h -3.9688 -3.9687 z m 31.75,0 v -2.64584 h 3.9687 3.9688 v 2.64584 2.64583 h -3.9688 -3.9687 z m 10.5833,0 v -2.64584 h 3.9688 3.9687 v 2.64584 2.64583 h -3.9687 -3.9688 z m -63.5,-9.26042 v -3.96875 h 3.9688 3.9687 v 3.96875 3.96875 h -3.9687 -3.9688 z m 10.5834,0 v -3.96875 h 3.9687 3.9688 v 3.96875 3.96875 h -3.9688 -3.9687 z m 10.5833,0 v -3.96875 h 3.9687 3.9688 v 3.96875 3.96875 h -3.9688 -3.9687 z m 10.5833,0 v -3.96875 h 3.9688 3.9687 v 3.96875 3.96875 h -3.9687 -3.9688 z m 10.5834,0 v -3.96875 h 3.9687 3.9688 v 3.96875 3.96875 h -3.9688 -3.9687 z m 10.5833,0 v -3.96875 h 3.9687 3.9688 v 3.96875 3.96875 h -3.9688 -3.9687 z m 10.5833,0 v -3.96875 h 3.9688 3.9687 v 3.96875 3.96875 h -3.9687 -3.9688 z m -63.5,-9.26042 v -2.64583 h 3.9688 3.9687 v 2.64583 2.64584 h -3.9687 -3.9688 z m 21.1667,0 v -2.64583 h 3.9687 3.9688 v 2.64583 2.64584 h -3.9688 -3.9687 z m 21.1667,0 v -2.64583 h 3.9687 3.9688 v 2.64583 2.64584 h -3.9688 -3.9687 z m 21.1666,0 v -2.64583 h 3.9688 3.9687 v 2.64583 2.64584 h -3.9687 -3.9688 z m -42.3333,-7.9375 v -2.64583 h 3.9687 3.9688 v 2.64583 2.64584 h -3.9688 -3.9687 z m 31.75,0 v -2.64583 h 3.9687 3.9688 v 2.64583 2.64584 h -3.9688 -3.9687 z m 10.5833,0 v -2.64583 h 3.9688 3.9687 v 2.64583 2.64584 h -3.9687 -3.9688 z m -63.5,-9.26041 v -3.96875 h 3.9688 3.9687 v 3.96875 3.96875 h -3.9687 -3.9688 z m 10.5834,0 v -3.96875 h 3.9687 3.9688 v 3.96875 3.96875 h -3.9688 -3.9687 z m 10.5833,0 v -3.96875 h 3.9687 3.9688 v 3.96875 3.96875 h -3.9688 -3.9687 z m 10.5833,0 v -3.96875 h 3.9688 3.9687 v 3.96875 3.96875 h -3.9687 -3.9688 z m 10.5834,0 v -3.96875 h 3.9687 3.9688 v 3.96875 3.96875 h -3.9688 -3.9687 z m 10.5833,0 v -3.96875 h 3.9687 3.9688 v 3.96875 3.96875 h -3.9688 -3.9687 z m 10.5833,0 v -3.96875 h 3.9688 3.9687 v 3.96875 3.96875 h -3.9687 -3.9688 z m 39.6875,-15.87501 v -3.96875 h -5.2916 -5.2917 v -5.29166 -5.29167 h -5.2917 -5.2916 v 3.96875 3.96875 h -3.9688 -3.9687 v -3.96875 -3.96875 h 3.9687 3.9688 v -1.32292 -1.32291 h -3.9688 -3.9687 v -2.64584 -2.64583 h 14.552 14.5521 v -3.96875 -3.96875 h -5.2916 -5.2917 v -9.26042 -9.26041 h 5.2917 5.2916 v -3.96875 -3.96875 h -5.2916 -5.2917 v -5.29167 -5.29167 h -5.2917 -5.2916 v 3.96875 3.96875 h -3.9688 -3.9687 v -3.96875 -3.96875 h 3.9687 3.9688 v -3.96875 -3.96875 h 5.2916 5.2917 v 3.96875 3.96875 h 5.2917 5.2916 v -7.9375 -7.9375 h -5.2916 -5.2917 v -5.29166 -5.29167 h 5.2917 5.2916 v 5.29167 5.29166 h 5.2917 5.2917 v -5.29166 -5.29167 h 5.2916 5.2917 v 5.29167 5.29166 h -5.2917 -5.2916 v 7.9375 7.9375 h 5.2916 5.2917 v -3.96875 -3.96875 h 5.2917 5.2916 v -9.26041 -9.26042 h 5.2917 5.2917 v 5.29167 5.29166 h 5.2916 5.2917 v -5.29166 -5.29167 h 5.2917 5.2916 v 9.26042 9.26041 h -5.2916 -5.2917 v 3.96875 3.96875 h 5.2917 5.2916 v 35.71875 35.71876 h -15.875 -15.875 v -9.26042 -9.26042 h -5.2916 -5.2917 v 5.29167 5.29166 h -5.2917 -5.2916 v 3.96875 3.96876 h -5.2917 -5.2917 z m 10.5834,-9.26041 v -5.29167 h -5.2917 -5.2917 v 5.29167 5.29166 h 5.2917 5.2917 z m 42.3333,0 v -5.29167 h -5.2917 -5.2916 v 5.29167 5.29166 h 5.2916 5.2917 z m -21.1667,-35.71875 v -22.48959 h 5.2917 5.2917 v 5.29167 5.29167 h 5.2916 5.2917 v -5.29167 -5.29167 h -5.2917 -5.2916 v -3.96875 -3.96875 h -5.2917 -5.2917 v 3.96875 3.96875 h -5.2916 -5.2917 v 5.29167 5.29167 h -5.2917 -5.2916 v -5.29167 -5.29167 h -5.2917 -5.2917 v 5.29167 5.29167 h 5.2917 5.2917 v 3.96875 3.96875 h -5.2917 -5.2917 v 9.26041 9.26042 h 5.2917 5.2917 v 3.96875 3.96875 h 10.5833 10.5833 z m -21.1666,5.29166 v -9.26041 h 5.2916 5.2917 v 9.26041 9.26042 h -5.2917 -5.2916 z m 42.3333,0 v -9.26041 h -5.2917 -5.2916 v 9.26041 9.26042 h 5.2916 5.2917 z m -134.9375,38.36459 v -2.64584 h 3.9687 3.9688 v 2.64584 2.64583 h -3.9688 -3.9687 z m 31.75,0 v -2.64584 h 3.9687 3.9688 v 2.64584 2.64583 h -3.9688 -3.9687 z m 10.5833,0 v -2.64584 h 3.9688 3.9687 v 2.64584 2.64583 h -3.9687 -3.9688 z m 10.5834,0 v -2.64584 h 3.9687 3.9688 v 2.64584 2.64583 h -3.9688 -3.9687 z m -63.5,-9.26042 v -3.96875 h 3.9687 3.9688 v 3.96875 3.96875 h -3.9688 -3.9687 z m 21.1666,0 v -3.96875 h 3.9688 3.9687 v 3.96875 3.96875 h -3.9687 -3.9688 z m 21.1667,0 v -3.96875 h 3.9687 3.9688 v 3.96875 3.96875 h -3.9688 -3.9687 z m -52.9167,-9.26042 v -2.64583 h 3.9688 3.9687 v 2.64583 2.64584 h -3.9687 -3.9688 z m 10.5834,0 v -2.64583 h 3.9687 3.9688 v 2.64583 2.64584 h -3.9688 -3.9687 z m 10.5833,0 v -2.64583 h 3.9687 3.9688 v 2.64583 2.64584 h -3.9688 -3.9687 z m 10.5833,0 v -2.64583 h 3.9688 3.9687 v 2.64583 2.64584 h -3.9687 -3.9688 z m 10.5834,0 v -2.64583 h 3.9687 3.9688 v 2.64583 2.64584 h -3.9688 -3.9687 z m 10.5833,0 v -2.64583 h 3.9687 3.9688 v 2.64583 2.64584 h -3.9688 -3.9687 z m 10.5833,0 v -2.64583 h 3.9688 3.9687 v 2.64583 2.64584 h -3.9687 -3.9688 z m -42.3333,-7.9375 v -2.64583 h 3.9687 3.9688 v 2.64583 2.64584 h -3.9688 -3.9687 z m 31.75,0 v -2.64583 h 3.9687 3.9688 v 2.64583 2.64584 h -3.9688 -3.9687 z m 10.5833,0 v -2.64583 h 3.9688 3.9687 v 2.64583 2.64584 h -3.9687 -3.9688 z m 10.5834,0 v -2.64583 h 3.9687 3.9688 v 2.64583 2.64584 h -3.9688 -3.9687 z m -63.5,-9.26041 v -3.96875 h 3.9687 3.9688 v 3.96875 3.96875 h -3.9688 -3.9687 z m 21.1666,0 v -3.96875 h 3.9688 3.9687 v 3.96875 3.96875 h -3.9687 -3.9688 z m 21.1667,0 v -3.96875 h 3.9687 3.9688 v 3.96875 3.96875 h -3.9688 -3.9687 z m 21.1667,0 v -3.96875 h 3.9687 3.9688 v 3.96875 3.96875 h -3.9688 -3.9687 z m -63.5,-9.26042 v -2.64583 h 3.9687 3.9688 v 2.64583 2.64583 h -3.9688 -3.9687 z m 21.1666,0 v -2.64583 h 3.9688 3.9687 v 2.64583 2.64583 h -3.9687 -3.9688 z m 21.1667,0 v -2.64583 h 3.9687 3.9688 v 2.64583 2.64583 h -3.9688 -3.9687 z m 21.1667,0 v -2.64583 h 3.9687 3.9688 v 2.64583 2.64583 h -3.9688 -3.9687 z m -52.9167,-7.9375 v -2.64583 h 3.9687 3.9688 v 2.64583 2.64583 h -3.9688 -3.9687 z m 31.75,0 v -2.64583 h 3.9687 3.9688 v 2.64583 2.64583 h -3.9688 -3.9687 z m 10.5833,0 v -2.64583 h 3.9688 3.9687 v 2.64583 2.64583 h -3.9687 -3.9688 z m 10.5834,0 v -2.64583 h 3.9687 3.9688 v 2.64583 2.64583 h -3.9688 -3.9687 z m -63.5,-9.26042 v -3.96875 h 3.9687 3.9688 v 3.96875 3.96875 h -3.9688 -3.9687 z m 21.1666,0 v -3.96875 h 3.9688 3.9687 v 3.96875 3.96875 h -3.9687 -3.9688 z m 21.1667,0 v -3.96875 h 3.9687 3.9688 v 3.96875 3.96875 h -3.9688 -3.9687 z m -52.9167,-9.26041 v -2.64584 h 3.9688 3.9687 v 2.64584 2.64583 h -3.9687 -3.9688 z m 21.1667,0 v -2.64584 h 3.9687 3.9688 v 2.64584 2.64583 h -3.9688 -3.9687 z m 21.1667,0 v -2.64584 h 3.9687 3.9688 v 2.64584 2.64583 h -3.9688 -3.9687 z m 21.1666,0 v -2.64584 h 3.9688 3.9687 v 2.64584 2.64583 h -3.9687 -3.9688 z m -42.3333,-7.9375 v -2.64584 h 3.9687 3.9688 v 2.64584 2.64583 h -3.9688 -3.9687 z m 31.75,0 v -2.64584 h 3.9687 3.9688 v 2.64584 2.64583 h -3.9688 -3.9687 z m 10.5833,0 v -2.64584 h 3.9688 3.9687 v 2.64584 2.64583 h -3.9687 -3.9688 z m 10.5834,0 v -2.64584 h 3.9687 3.9688 v 2.64584 2.64583 h -3.9688 -3.9687 z m -63.5,-9.26042 v -3.96875 h 3.9687 3.9688 v 3.96875 3.96875 h -3.9688 -3.9687 z m 21.1666,0 v -3.96875 h 3.9688 3.9687 v 3.96875 3.96875 h -3.9687 -3.9688 z m 21.1667,0 v -3.96875 h 3.9687 3.9688 v 3.96875 3.96875 h -3.9688 -3.9687 z m 21.1667,0 v -3.96875 h 3.9687 3.9688 v 3.96875 3.96875 h -3.9688 -3.9687 z m 29.1041,-21.16667 v -9.26041 h -5.2916 -5.2917 v 5.29166 5.29167 h -5.2917 -5.2916 v 2.64583 2.64584 h -3.9688 -3.9687 v -2.64584 -2.64583 h 3.9687 3.9688 v -6.61458 -6.61459 h -3.9688 -3.9687 v -2.64583 -2.64583 h 14.552 14.5521 v -9.26042 -9.26042 h -5.2916 -5.2917 v 5.29167 5.29167 h -5.2917 -5.2916 v 2.64583 2.64583 h -3.9688 -3.9687 v -2.64583 -2.64583 h 3.9687 3.9688 v -5.29167 -5.29167 h 5.2916 5.2917 v -3.96875 -3.96875 h 5.2917 5.2916 v -22.48958 -22.48958 h 5.2917 5.2917 v 22.48958 22.48958 h 5.2916 5.2917 v 3.96875 3.96875 h 5.2917 5.2916 v -7.9375 -7.9375 h -5.2916 -5.2917 v -9.26041 -9.26042 h 5.2917 5.2916 v -3.96875 -3.96875 h -5.2916 -5.2917 v -5.29167 -5.29166 h 5.2917 5.2916 v 5.29166 5.29167 h 5.2917 5.2917 v -5.29167 -5.29166 h 5.2916 5.2917 v 5.29166 5.29167 h 5.2917 5.2916 v 3.96875 3.96875 h -5.2916 -5.2917 v 9.26042 9.26041 h 5.2917 5.2916 v 7.9375 7.9375 h -5.2916 -5.2917 v 5.29167 5.29167 h 5.2917 5.2916 v 7.9375 7.9375 h -5.2916 -5.2917 v 5.29166 5.29167 h 5.2917 5.2916 v 3.96875 3.96875 h -15.875 -15.875 v -3.96875 -3.96875 h -5.2916 -5.2917 v -5.29167 -5.29166 h -5.2917 -5.2916 v 9.26041 9.26042 h -5.2917 -5.2917 z m 42.3334,-3.96875 v -5.29166 h -5.2917 -5.2917 v 5.29166 5.29167 h 5.2917 5.2917 z m -10.5834,-17.19791 v -3.96875 h 5.2917 5.2917 v -5.29167 -5.29167 h 5.2916 5.2917 v -3.96875 -3.96875 h -5.2917 -5.2916 v 3.96875 3.96875 h -5.2917 -5.2917 v 5.29167 5.29167 h -5.2916 -5.2917 v -5.29167 -5.29167 h -5.2917 -5.2916 v -3.96875 -3.96875 h -5.2917 -5.2917 v 3.96875 3.96875 h 5.2917 5.2917 v 9.26042 9.26042 h 10.5833 10.5833 z m 10.5834,-39.6875 v -9.26042 h -5.2917 -5.2917 v 9.26042 9.26041 h 5.2917 5.2917 z m -124.3542,64.82291 v -2.64583 h 3.9687 3.9688 v 2.64583 2.64584 h -3.9688 -3.9687 z m 31.75,0 v -2.64583 h 3.9687 3.9688 v 2.64583 2.64584 h -3.9688 -3.9687 z m 10.5833,0 v -2.64583 h 3.9688 3.9687 v 2.64583 2.64584 h -3.9687 -3.9688 z m -63.5,-9.26041 v -3.96875 h 3.9688 3.9687 v 3.96875 3.96875 h -3.9687 -3.9688 z m 21.1667,0 v -3.96875 h 3.9687 3.9688 v 3.96875 3.96875 h -3.9688 -3.9687 z m 21.1667,0 v -3.96875 h 3.9687 3.9688 v 3.96875 3.96875 h -3.9688 -3.9687 z m 21.1666,0 v -3.96875 h 3.9688 3.9687 v 3.96875 3.96875 h -3.9687 -3.9688 z m -63.5,-9.26042 v -2.64583 h 3.9688 3.9687 v 2.64583 2.64583 h -3.9687 -3.9688 z m 10.5834,0 v -2.64583 h 3.9687 3.9688 v 2.64583 2.64583 h -3.9688 -3.9687 z m 10.5833,0 v -2.64583 h 3.9687 3.9688 v 2.64583 2.64583 h -3.9688 -3.9687 z m 10.5833,0 v -2.64583 h 3.9688 3.9687 v 2.64583 2.64583 h -3.9687 -3.9688 z m 10.5834,0 v -2.64583 h 3.9687 3.9688 v 2.64583 2.64583 h -3.9688 -3.9687 z m 10.5833,0 v -2.64583 h 3.9687 3.9688 v 2.64583 2.64583 h -3.9688 -3.9687 z m 10.5833,0 v -2.64583 h 3.9688 3.9687 v 2.64583 2.64583 h -3.9687 -3.9688 z m -42.3333,-7.9375 v -2.64583 h 3.9687 3.9688 v 2.64583 2.64583 h -3.9688 -3.9687 z m 31.75,0 v -2.64583 h 3.9687 3.9688 v 2.64583 2.64583 h -3.9688 -3.9687 z m 10.5833,0 v -2.64583 h 3.9688 3.9687 v 2.64583 2.64583 h -3.9687 -3.9688 z m -63.5,-9.26042 v -3.96875 h 3.9688 3.9687 v 3.96875 3.96875 h -3.9687 -3.9688 z m 21.1667,0 v -3.96875 h 3.9687 3.9688 v 3.96875 3.96875 h -3.9688 -3.9687 z m 21.1667,0 v -3.96875 h 3.9687 3.9688 v 3.96875 3.96875 h -3.9688 -3.9687 z m 21.1666,0 v -3.96875 h 3.9688 3.9687 v 3.96875 3.96875 h -3.9687 -3.9688 z m -52.9166,-9.26041 v -2.64584 h 3.9687 3.9688 v 2.64584 2.64583 h -3.9688 -3.9687 z m 21.1666,0 v -2.64584 h 3.9688 3.9687 v 2.64584 2.64583 h -3.9687 -3.9688 z m 21.1667,0 v -2.64584 h 3.9687 3.9688 v 2.64584 2.64583 h -3.9688 -3.9687 z m 21.1667,0 v -2.64584 h 3.9687 3.9688 v 2.64584 2.64583 h -3.9688 -3.9687 z m -52.9167,-7.9375 v -2.64584 h 3.9687 3.9688 v 2.64584 2.64583 h -3.9688 -3.9687 z m 31.75,0 v -2.64584 h 3.9687 3.9688 v 2.64584 2.64583 h -3.9688 -3.9687 z m 10.5833,0 v -2.64584 h 3.9688 3.9687 v 2.64584 2.64583 h -3.9687 -3.9688 z m 10.5834,0 v -2.64584 h 3.9687 3.9688 v -9.26041 -9.26042 h 5.2916 5.2917 v 9.26042 9.26041 h -5.2917 -5.2916 v 2.64584 2.64583 h -3.9688 -3.9687 z m -74.0834,-9.26042 v -3.96875 h 3.9688 3.9687 v 3.96875 3.96875 h -3.9687 -3.9688 z m 21.1667,0 v -3.96875 h 3.9687 3.9688 v 3.96875 3.96875 h -3.9688 -3.9687 z m 21.1667,0 v -3.96875 h 3.9687 3.9688 v 3.96875 3.96875 h -3.9688 -3.9687 z m 21.1666,0 v -3.96875 h 3.9688 3.9687 v 3.96875 3.96875 h -3.9687 -3.9688 z m -63.5,-9.26042 v -2.64583 h 3.9688 3.9687 v 2.64583 2.64584 h -3.9687 -3.9688 z m 21.1667,0 v -2.64583 h 3.9687 3.9688 v 2.64583 2.64584 h -3.9688 -3.9687 z m 21.1667,0 v -2.64583 h 3.9687 3.9688 v 2.64583 2.64584 h -3.9688 -3.9687 z m 21.1666,0 v -2.64583 h 3.9688 3.9687 v 2.64583 2.64584 h -3.9687 -3.9688 z m -42.3333,-7.9375 v -2.64583 h 3.9687 3.9688 v 2.64583 2.64584 h -3.9688 -3.9687 z m 31.75,0 v -2.64583 h 3.9687 3.9688 v 2.64583 2.64584 h -3.9688 -3.9687 z m 10.5833,0 v -2.64583 h 3.9688 3.9687 v 2.64583 2.64584 h -3.9687 -3.9688 z m 10.5834,0 v -2.64583 h 3.9687 3.9688 v -5.29167 -5.29166 h 5.2916 5.2917 v 5.29166 5.29167 h -5.2917 -5.2916 v 2.64583 2.64584 h -3.9688 -3.9687 z m -74.0834,-9.26041 v -3.96875 h 3.9688 3.9687 v 3.96875 3.96875 h -3.9687 -3.9688 z m 21.1667,0 v -3.96875 h 3.9687 3.9688 v 3.96875 3.96875 h -3.9688 -3.9687 z m 21.1667,0 v -3.96875 h 3.9687 3.9688 v 3.96875 3.96875 h -3.9688 -3.9687 z m 21.1666,0 v -3.96875 h 3.9688 3.9687 v 3.96875 3.96875 h -3.9687 -3.9688 z m 39.6875,-15.87501 v -3.96875 h 5.2917 5.2917 v 3.96875 3.96875 h -5.2917 -5.2917 z m 31.75,0 v -3.96875 h 15.875 15.875 v 3.96875 3.96875 h -15.875 -15.875 z m -113.7708,-1.32291 v -2.64584 h 3.9687 3.9688 v 2.64584 2.64583 h -3.9688 -3.9687 z m 31.75,0 v -2.64584 h 3.9687 3.9688 v 2.64584 2.64583 h -3.9688 -3.9687 z m 10.5833,0 v -2.64584 h 3.9688 3.9687 v 2.64584 2.64583 h -3.9687 -3.9688 z m 10.5834,0 v -2.64584 h 3.9687 3.9688 v 2.64584 2.64583 h -3.9688 -3.9687 z m 7.9375,-14.55209 v -1.32291 h -3.9688 -3.9687 v -2.64584 -2.64583 h 14.552 14.5521 v -3.96875 -3.96875 h 5.2917 5.2917 v 3.96875 3.96875 h 10.5833 10.5833 v -3.96875 -3.96875 h 15.875 15.875 v 7.9375 7.9375 h -42.3333 -42.3333 z m -82.0209,-3.96875 v -2.64583 h 3.9688 3.9687 v 2.64583 2.64584 h -3.9687 -3.9688 z m 10.5834,0 v -2.64583 h 3.9687 3.9688 v 2.64583 2.64584 h -3.9688 -3.9687 z m 10.5833,0 v -2.64583 h 3.9687 3.9688 v 2.64583 2.64584 h -3.9688 -3.9687 z m 10.5833,0 v -2.64583 h 3.9688 3.9687 v 2.64583 2.64584 h -3.9687 -3.9688 z m 10.5834,0 v -2.64583 h 3.9687 3.9688 v 2.64583 2.64584 h -3.9688 -3.9687 z m 10.5833,0 v -2.64583 h 3.9687 3.9688 v 2.64583 2.64584 h -3.9688 -3.9687 z m 10.5833,0 v -2.64583 h 3.9688 3.9687 v 2.64583 2.64584 h -3.9687 -3.9688 z m -42.3333,-7.9375 v -2.64583 h 3.9687 3.9688 v 2.64583 2.64584 h -3.9688 -3.9687 z m 31.75,0 v -2.64583 h 3.9687 3.9688 v 2.64583 2.64584 h -3.9688 -3.9687 z m 10.5833,0 v -2.64583 h 3.9688 3.9687 v 2.64583 2.64584 h -3.9687 -3.9688 z m 10.5834,0 v -2.64583 h 3.9687 3.9688 v 2.64583 2.64584 h -3.9688 -3.9687 z m 18.5208,-17.19791 v -3.96875 h 5.2917 5.2916 v -3.96875 -3.96875 h 5.2917 5.2917 v 3.96875 3.96875 h 5.2916 5.2917 v 3.96875 3.96875 h -5.2917 -5.2916 v -3.96875 -3.96875 h -5.2917 -5.2917 v 3.96875 3.96875 h -5.2916 -5.2917 z m 42.3333,-3.96875 v -7.9375 h 15.875 15.875 v 7.9375 7.9375 h -5.2916 -5.2917 v -3.96875 -3.96875 h -5.2917 -5.2916 v 3.96875 3.96875 h -5.2917 -5.2917 z m -124.3541,2.64583 v -2.64583 h 3.9687 3.9688 v 2.64583 2.64583 h -3.9688 -3.9687 z m 21.1666,0 v -2.64583 h 3.9688 3.9687 v 2.64583 2.64583 h -3.9687 -3.9688 z m 21.1667,0 v -2.64583 h 3.9687 3.9688 v 2.64583 2.64583 h -3.9688 -3.9687 z m 21.1667,0 v -2.64583 h 3.9687 3.9688 v 2.64583 2.64583 h -3.9688 -3.9687 z m -52.9167,-7.9375 v -2.64583 h 3.9687 3.9688 v 2.64583 2.64583 h -3.9688 -3.9687 z m 31.75,0 v -2.64583 h 3.9687 3.9688 v 2.64583 2.64583 h -3.9688 -3.9687 z m 10.5833,0 v -2.64583 h 3.9688 3.9687 v 2.64583 2.64583 h -3.9687 -3.9688 z m 10.5834,0 v -2.64583 h 3.9687 3.9688 v 2.64583 2.64583 h -3.9688 -3.9687 z m 7.9375,-17.19792 v -3.96875 h 5.2916 5.2917 v 3.96875 3.96875 h -5.2917 -5.2916 z m 21.1666,-3.96875 v -7.9375 h 5.2917 5.2917 v 7.9375 7.9375 h -5.2917 -5.2917 z m 21.1667,3.96875 v -3.96875 h 5.2917 5.2916 v -3.96875 -3.96875 h 15.875 15.875 v 3.96875 3.96875 h -5.2916 -5.2917 v 3.96875 3.96875 h -5.2917 -5.2916 v -3.96875 -3.96875 h -5.2917 -5.2917 v 3.96875 3.96875 h -5.2916 -5.2917 z m -124.3542,-1.32291 v -2.64584 h 3.9688 3.9687 v 2.64584 2.64583 h -3.9687 -3.9688 z m 21.1667,0 v -2.64584 h 3.9687 3.9688 v 2.64584 2.64583 h -3.9688 -3.9687 z m 21.1667,0 v -2.64584 h 3.9687 3.9688 v 2.64584 2.64583 h -3.9688 -3.9687 z m 21.1666,0 v -2.64584 h 3.9688 3.9687 v 2.64584 2.64583 h -3.9687 -3.9688 z m -42.3333,-7.9375 v -2.64584 h 3.9687 3.9688 v 2.64584 2.64583 h -3.9688 -3.9687 z m 31.75,0 v -2.64584 h 3.9687 3.9688 v 2.64584 2.64583 h -3.9688 -3.9687 z m 10.5833,0 v -2.64584 h 3.9688 3.9687 v 2.64584 2.64583 h -3.9687 -3.9688 z m 10.5834,0 v -2.64584 h 3.9687 3.9688 v 2.64584 2.64583 h -3.9688 -3.9687 z"
         style="fill:#ffffff;fill-opacity:1;stroke-width:0.26458332" />
    </g>
  </g>
</svg>
